<svg width="130" height="39" viewBox="0 0 130 39" fill="none" xmlns="http://www.w3.org/2000/svg">
<g filter="url(#filter0_d_60_39423)">
<rect x="5" y="5" width="120" height="29" rx="14.5" fill="#F52E26"/>
<rect x="5.5" y="5.5" width="119" height="28" rx="14" stroke="#00D1FF"/>
</g>
<path d="M33.332 15.138H34.872L38.134 24H36.272C36.1133 23.5333 35.9173 22.9173 35.684 22.152H32.506C32.3753 22.572 32.1747 23.188 31.904 24H30.07L33.332 15.138ZM34.116 17.532C33.8547 18.2693 33.4953 19.3053 33.038 20.64H35.166C34.7273 19.352 34.3773 18.316 34.116 17.532ZM43.486 24L43.234 23.328C43.0847 23.5707 42.842 23.7713 42.506 23.93C42.17 24.0887 41.8247 24.168 41.47 24.168C40.4714 24.168 39.7107 23.8367 39.188 23.174C38.7494 22.6233 38.53 21.914 38.53 21.046C38.53 19.8233 38.8847 18.8807 39.594 18.218C40.126 17.7233 40.7654 17.476 41.512 17.476C42.156 17.476 42.6974 17.6533 43.136 18.008V15.978L44.9 14.998V24H43.486ZM43.136 21.578V19.8C43.0707 19.492 42.9214 19.24 42.688 19.044C42.464 18.8387 42.198 18.736 41.89 18.736C41.414 18.736 41.036 18.9227 40.756 19.296C40.476 19.6693 40.336 20.1733 40.336 20.808C40.336 22.1987 40.7887 22.894 41.694 22.894C42.03 22.894 42.3427 22.7633 42.632 22.502C42.9214 22.2313 43.0894 21.9233 43.136 21.578ZM51.3337 24L51.0817 23.328C50.9324 23.5707 50.6897 23.7713 50.3537 23.93C50.0177 24.0887 49.6724 24.168 49.3177 24.168C48.319 24.168 47.5584 23.8367 47.0357 23.174C46.597 22.6233 46.3777 21.914 46.3777 21.046C46.3777 19.8233 46.7324 18.8807 47.4417 18.218C47.9737 17.7233 48.613 17.476 49.3597 17.476C50.0037 17.476 50.545 17.6533 50.9837 18.008V15.978L52.7477 14.998V24H51.3337ZM50.9837 21.578V19.8C50.9184 19.492 50.769 19.24 50.5357 19.044C50.3117 18.8387 50.0457 18.736 49.7377 18.736C49.2617 18.736 48.8837 18.9227 48.6037 19.296C48.3237 19.6693 48.1837 20.1733 48.1837 20.808C48.1837 22.1987 48.6364 22.894 49.5417 22.894C49.8777 22.894 50.1904 22.7633 50.4797 22.502C50.769 22.2313 50.937 21.9233 50.9837 21.578ZM61.9846 19.058H60.1646V22.208C60.1646 22.6747 60.3186 22.908 60.6266 22.908C60.9066 22.908 61.2566 22.7867 61.6766 22.544L62.2646 23.44C61.602 23.9627 60.8693 24.224 60.0666 24.224C58.9466 24.224 58.3866 23.608 58.3866 22.376V19.058H57.5046V17.644H58.4006V16.51C58.8673 16.258 59.46 15.9453 60.1786 15.572V17.644H61.9846V19.058ZM66.1804 17.476C67.2257 17.476 68.0377 17.8447 68.6164 18.582C69.1017 19.198 69.3444 19.9493 69.3444 20.836C69.3444 21.872 68.985 22.712 68.2664 23.356C67.669 23.8973 66.9737 24.168 66.1804 24.168C65.2564 24.168 64.4817 23.8227 63.8564 23.132C63.2964 22.5067 63.0164 21.7413 63.0164 20.836C63.0164 19.8093 63.329 18.9787 63.9544 18.344C64.5237 17.7653 65.2657 17.476 66.1804 17.476ZM66.1804 22.852C67.0857 22.852 67.5384 22.18 67.5384 20.836C67.5384 19.436 67.0857 18.736 66.1804 18.736C65.275 18.736 64.8224 19.436 64.8224 20.836C64.8224 22.18 65.275 22.852 66.1804 22.852ZM80.6921 23.006C79.9175 23.7807 79.0075 24.168 77.9621 24.168C76.4595 24.168 75.3395 23.608 74.6021 22.488C74.0701 21.6853 73.8041 20.7427 73.8041 19.66C73.8041 18.2507 74.1681 17.1167 74.8961 16.258C75.6148 15.3993 76.6135 14.97 77.8921 14.97C78.7881 14.97 79.6841 15.348 80.5801 16.104L79.8661 17.266C79.1941 16.7807 78.5828 16.538 78.0321 16.538C77.2668 16.538 76.6741 16.86 76.2541 17.504C75.8901 18.0547 75.7081 18.7733 75.7081 19.66C75.7081 20.444 75.9228 21.116 76.3521 21.676C76.8095 22.264 77.4208 22.558 78.1861 22.558C78.6901 22.558 79.2875 22.3387 79.9781 21.9L80.6921 23.006ZM87.1951 24H85.7811L85.6411 23.398C85.0251 23.9113 84.3998 24.168 83.7651 24.168C82.3558 24.168 81.6511 23.482 81.6511 22.11C81.6511 21.4287 81.9451 20.8967 82.5331 20.514C83.1305 20.122 84.0125 19.926 85.1791 19.926H85.4731V19.898C85.4731 19.4967 85.3891 19.2213 85.2211 19.072C85.0531 18.9227 84.7498 18.848 84.3111 18.848C83.6951 18.848 83.1305 19.044 82.6171 19.436C82.4491 19.128 82.2905 18.8247 82.1411 18.526C82.6731 18.1153 83.1351 17.84 83.5271 17.7C83.9285 17.5507 84.4045 17.476 84.9551 17.476C86.4485 17.476 87.1951 18.4093 87.1951 20.276V24ZM85.4171 21.004H85.2071C84.6751 21.004 84.2458 21.0973 83.9191 21.284C83.5925 21.4707 83.4291 21.718 83.4291 22.026C83.4291 22.6047 83.6811 22.894 84.1851 22.894C84.4931 22.894 84.7638 22.8053 84.9971 22.628C85.2305 22.4507 85.3705 22.2267 85.4171 21.956V21.004ZM90.5965 17.644L90.7645 18.204C90.8578 18.008 91.0352 17.84 91.2965 17.7C91.5672 17.5507 91.8425 17.476 92.1225 17.476C92.9625 17.476 93.5878 17.8727 93.9985 18.666L92.5145 19.478C92.2065 19.1233 91.8798 18.946 91.5345 18.946C91.2172 18.946 90.9838 19.1093 90.8345 19.436V24H89.0985V17.644H90.5965ZM99.2678 19.058H97.4478V22.208C97.4478 22.6747 97.6018 22.908 97.9098 22.908C98.1898 22.908 98.5398 22.7867 98.9598 22.544L99.5478 23.44C98.8852 23.9627 98.1525 24.224 97.3498 24.224C96.2298 24.224 95.6698 23.608 95.6698 22.376V19.058H94.7878V17.644H95.6838V16.51C96.1505 16.258 96.7432 15.9453 97.4618 15.572V17.644H99.2678V19.058Z" fill="white"/>
<defs>
<filter id="filter0_d_60_39423" x="0" y="0" width="130" height="39" filterUnits="userSpaceOnUse" color-interpolation-filters="sRGB">
<feFlood flood-opacity="0" result="BackgroundImageFix"/>
<feColorMatrix in="SourceAlpha" type="matrix" values="0 0 0 0 0 0 0 0 0 0 0 0 0 0 0 0 0 0 127 0" result="hardAlpha"/>
<feOffset/>
<feGaussianBlur stdDeviation="2.5"/>
<feComposite in2="hardAlpha" operator="out"/>
<feColorMatrix type="matrix" values="0 0 0 0 0 0 0 0 0 0.819608 0 0 0 0 1 0 0 0 1 0"/>
<feBlend mode="normal" in2="BackgroundImageFix" result="effect1_dropShadow_60_39423"/>
<feBlend mode="normal" in="SourceGraphic" in2="effect1_dropShadow_60_39423" result="shape"/>
</filter>
</defs>
</svg>
