<svg width="21" height="24" viewBox="0 0 21 24" fill="none" xmlns="http://www.w3.org/2000/svg">
<path d="M11.1797 11.0539V11.0539C11.4024 10.2372 12.1442 9.67065 12.9907 9.67065H13.0656C13.8962 9.67065 14.6381 10.1903 14.922 10.9709L14.9521 11.0539" stroke="#42413D" stroke-linecap="round"/>
<path d="M14.8271 7.28149V8.53898" stroke="#42413D" stroke-linecap="round"/>
<path d="M7.6167 22.7485H8.99993M16.6173 22.7485H18.0005" stroke="#42413D" stroke-linecap="round"/>
<path d="M5.00049 4.5V2L6.05049 1H10.9505L12.0005 2V4.5" stroke="#42413D" stroke-linecap="round"/>
<path d="M14.5753 11.0538V5.76636C14.5753 5.21407 14.1276 4.76636 13.5753 4.76636H3.50342C2.95113 4.76636 2.50342 5.21407 2.50342 5.76636V21.1196C2.50342 21.6719 2.95113 22.1196 3.50342 22.1196H5.26989" stroke="#42413D"/>
<path d="M18.9893 11.7916C19.6373 11.8775 20.1113 12.439 20.1113 13.1367L20.1113 20.6228C20.1113 21.4513 19.4398 22.1228 18.6113 22.1228L6.48978 22.1228C5.66435 22.1228 4.99403 21.4559 4.9898 20.6305L4.95153 13.1572C4.94782 12.4329 5.4567 11.843 6.14272 11.7648C7.51436 11.6083 9.73502 11.4282 12.6892 11.4282C15.6075 11.4282 17.7075 11.6217 18.9893 11.7916Z" stroke="#42413D"/>
<path d="M2.00049 16C2.00049 16 1.00049 15.4643 1.00049 13.5C1.00049 11.5357 2.00049 11 2.00049 11" stroke="#42413D" stroke-linecap="round"/>
<path d="M6.00049 4.5C6.00049 4.5 6.5362 3.5 8.50049 3.5C10.4648 3.5 11.0005 4.5 11.0005 4.5" stroke="#42413D"/>
<path d="M5.26972 22.2456C5.26972 22.6623 4.93193 23.0001 4.51523 23.0001C4.09854 23.0001 3.76074 22.6623 3.76074 22.2456" stroke="#42413D" stroke-linecap="round"/>
<path d="M12.1099 22.5146C12.2182 22.7985 12.4931 23.0001 12.815 23.0001C13.1369 23.0001 13.4117 22.7985 13.52 22.5146" stroke="#42413D" stroke-linecap="square"/>
<path d="M6.50898 11.5905V7.53257C6.50898 7.11587 6.17118 6.77808 5.75449 6.77808V6.77808C5.3378 6.77808 5 7.11587 5 7.53257L5 12.7123" stroke="#42413D" stroke-linecap="round"/>
<path d="M12.51 9.67054V7.53281C12.51 7.11612 12.1722 6.77832 11.7555 6.77832V6.77832C11.3388 6.77832 11.001 7.11612 11.001 7.53281V11.0538" stroke="#42413D"/>
<path d="M9.50898 11.0538V7.53281C9.50898 7.11612 9.17118 6.77832 8.75449 6.77832V6.77832C8.3378 6.77832 8 7.11612 8 7.53281V11.1795" stroke="#42413D"/>
<path d="M7.5332 13.946V20.988" stroke="#42413D" stroke-linecap="round"/>
<path d="M18.0962 13.946V20.988" stroke="#42413D" stroke-linecap="round"/>
<path d="M10.0483 13.5688V20.8623" stroke="#42413D" stroke-linecap="round"/>
<path d="M15.5815 13.5688V20.8623" stroke="#42413D" stroke-linecap="round"/>
<path d="M12.8149 13.3174L12.8149 20.8623" stroke="#42413D" stroke-linecap="round"/>
</svg>
