<svg width="20" height="23" viewBox="0 0 20 23" fill="none" xmlns="http://www.w3.org/2000/svg">
<path d="M1.00049 2.87926H15.0005M1.00049 2.87926L4.6847 19.1662M1.00049 2.87926V2C1.00049 1.44772 1.4482 1 2.00049 1H14.0005C14.5528 1 15.0005 1.44772 15.0005 2V2.87926M15.0005 2.87926L11.3163 19.1662M11.3163 19.1662H4.6847M11.3163 19.1662V21C11.3163 21.5523 10.8686 22 10.3163 22H5.6847C5.13241 22 4.6847 21.5523 4.6847 21V19.1662" stroke="#42413D" stroke-linecap="round"/>
<path d="M14.0005 17H19.0005M14.0005 17V21C14.0005 21.5523 14.4482 22 15.0005 22H18.0005C18.5528 22 19.0005 21.5523 19.0005 21V17M14.0005 17L14.0005 14.8349H14.9338M19.0005 17L19.0005 14.8349H18.1338M14.9338 14.8349V12.0734H15.4005M14.9338 14.8349H18.1338M18.1338 14.8349V12.0734H17.6005M15.4005 12.0734V8C15.4005 7 15.6272 5.5 16.0005 5.5C17.0379 5.5 17.6005 7.5 17.6005 8V12.0734M15.4005 12.0734H17.6005" stroke="#42413D" stroke-linecap="round"/>
<path d="M8.00049 5.80902L8.66078 7.84119L8.71691 8.01393H8.89854H11.0353L9.30663 9.26988L9.15968 9.37664L9.21581 9.54939L9.8761 11.5816L8.14743 10.3256L8.00049 10.2188L7.85354 10.3256L6.12488 11.5816L6.78517 9.54939L6.8413 9.37664L6.69435 9.26988L4.96568 8.01393H7.10243H7.28407L7.3402 7.84119L8.00049 5.80902Z" stroke="#42413D" stroke-width="0.5"/>
</svg>
