<svg width="130" height="39" viewBox="0 0 130 39" fill="none" xmlns="http://www.w3.org/2000/svg">
<g filter="url(#filter0_d_60_39426)">
<rect x="5" y="5" width="120" height="29" rx="14.5" fill="#F7DF2A"/>
<rect x="5.5" y="5.5" width="119" height="28" rx="14" stroke="#00D1FF"/>
</g>
<path d="M39.12 23.986V15.152C39.8293 15.0307 40.688 14.97 41.696 14.97C42.8627 14.97 43.7307 15.2453 44.3 15.796C44.748 16.2347 44.972 16.8133 44.972 17.532C44.972 17.9707 44.79 18.372 44.426 18.736C44.062 19.0907 43.656 19.268 43.208 19.268V19.282C43.824 19.3473 44.3093 19.5853 44.664 19.996C45.028 20.4067 45.21 20.9247 45.21 21.55C45.21 22.4273 44.8413 23.0993 44.104 23.566C43.46 23.9673 42.6013 24.168 41.528 24.168C40.5947 24.168 39.792 24.1073 39.12 23.986ZM40.954 16.538V18.582H41.99C42.774 18.582 43.166 18.2507 43.166 17.588C43.166 16.8507 42.69 16.4727 41.738 16.454H41.696C41.4627 16.454 41.2153 16.482 40.954 16.538ZM40.954 20.052V22.614C41.1873 22.6887 41.5187 22.726 41.948 22.726C42.8533 22.726 43.306 22.3293 43.306 21.536C43.306 20.5467 42.8393 20.052 41.906 20.052H40.954ZM50.8616 23.272C50.395 23.8693 49.7556 24.168 48.9436 24.168C48.141 24.168 47.567 23.9627 47.2216 23.552C46.8856 23.132 46.7176 22.432 46.7176 21.452V17.644H48.4536V20.99C48.4536 21.6247 48.5376 22.0727 48.7056 22.334C48.8736 22.586 49.163 22.712 49.5736 22.712C49.751 22.712 49.9516 22.6653 50.1756 22.572C50.3996 22.4787 50.535 22.3807 50.5816 22.278V17.644H52.3456V24H51.0296L50.8756 23.272H50.8616ZM60.0748 17.644C59.7015 18.6893 59.1882 20.094 58.5348 21.858C58.0588 23.174 57.6855 24.196 57.4148 24.924C56.9762 26.0907 56.3602 26.674 55.5668 26.674C54.9508 26.674 54.3162 26.408 53.6628 25.876C53.8495 25.5587 54.0082 25.2787 54.1388 25.036C54.4842 25.26 54.7875 25.372 55.0488 25.372C55.4315 25.372 55.7722 24.9147 56.0708 24H55.7348L53.5088 17.644H55.2588C55.3615 17.952 55.5202 18.4327 55.7348 19.086L55.8188 19.31C56.2202 20.5233 56.5095 21.4147 56.6868 21.984L58.3108 17.644H60.0748ZM66.5744 18.064V24H64.7684V15.138H66.2944C67.7878 17.0793 69.2718 19.1187 70.7464 21.256V15.138H72.5804V24H71.0124C70.1351 22.964 68.6558 20.9853 66.5744 18.064ZM77.3933 17.476C78.4386 17.476 79.2506 17.8447 79.8293 18.582C80.3146 19.198 80.5573 19.9493 80.5573 20.836C80.5573 21.872 80.1979 22.712 79.4793 23.356C78.8819 23.8973 78.1866 24.168 77.3933 24.168C76.4693 24.168 75.6946 23.8227 75.0693 23.132C74.5093 22.5067 74.2293 21.7413 74.2293 20.836C74.2293 19.8093 74.5419 18.9787 75.1673 18.344C75.7366 17.7653 76.4786 17.476 77.3933 17.476ZM77.3933 22.852C78.2986 22.852 78.7513 22.18 78.7513 20.836C78.7513 19.436 78.2986 18.736 77.3933 18.736C76.4879 18.736 76.0353 19.436 76.0353 20.836C76.0353 22.18 76.4879 22.852 77.3933 22.852ZM85.0418 24H83.4878L81.3038 17.644H83.0818L84.2438 21.858L85.1818 17.644H86.9738C87.1138 18.316 87.3471 19.394 87.6738 20.878L87.8838 21.858L89.0878 17.644H90.9078L90.5998 18.526L90.4318 18.96C89.6291 21.2187 89.0271 22.8987 88.6258 24H87.0578C86.9458 23.5707 86.8058 23.0153 86.6378 22.334C86.3764 21.27 86.1804 20.4813 86.0498 19.968C85.9378 20.3973 85.7838 21.018 85.5878 21.83C85.3451 22.8287 85.1631 23.552 85.0418 24Z" fill="white"/>
<defs>
<filter id="filter0_d_60_39426" x="0" y="0" width="130" height="39" filterUnits="userSpaceOnUse" color-interpolation-filters="sRGB">
<feFlood flood-opacity="0" result="BackgroundImageFix"/>
<feColorMatrix in="SourceAlpha" type="matrix" values="0 0 0 0 0 0 0 0 0 0 0 0 0 0 0 0 0 0 127 0" result="hardAlpha"/>
<feOffset/>
<feGaussianBlur stdDeviation="2.5"/>
<feComposite in2="hardAlpha" operator="out"/>
<feColorMatrix type="matrix" values="0 0 0 0 0 0 0 0 0 0.819608 0 0 0 0 1 0 0 0 1 0"/>
<feBlend mode="normal" in2="BackgroundImageFix" result="effect1_dropShadow_60_39426"/>
<feBlend mode="normal" in="SourceGraphic" in2="effect1_dropShadow_60_39426" result="shape"/>
</filter>
</defs>
</svg>
