<svg width="50" height="19" viewBox="0 0 50 19" fill="none" xmlns="http://www.w3.org/2000/svg">
<path d="M5.24865 14.9378H4.23545C2.4485 14.9378 0.99989 13.4892 0.99989 11.7022V11.7022V10.9556M24.6064 4.48444L23.4408 5.26658C22.5081 5.89246 21.4102 6.22667 20.287 6.22667V6.22667M12.9872 14.9378H20.9606M20.287 6.22667V4.23556M20.287 6.22667H14.2179M14.2179 6.22667H12.3296L3.95186 7.51495C2.25358 7.7761 0.99989 9.23732 0.99989 10.9556V10.9556M14.2179 6.22667V6.22667C15.7366 3.8246 18.0969 2.0756 20.837 1.32186L22.0071 1M19.9486 9.4H18.4313M0.99989 10.9556H2.6691M6.49388 13.5675C6.49388 12.125 7.6346 10.9556 9.04174 10.9556C10.4489 10.9556 11.5896 12.125 11.5896 13.5675C11.5896 15.0101 10.4489 16.1795 9.04174 16.1795C7.6346 16.1795 6.49388 15.0101 6.49388 13.5675ZM9.11794 9.24444V9.24444C11.4225 9.24444 13.2907 11.1127 13.2907 13.4172V13.6272C13.2907 15.9318 11.4225 17.8 9.11794 17.8V17.8C6.81338 17.8 4.94517 15.9318 4.94517 13.6272V13.4172C4.94517 11.1127 6.81338 9.24444 9.11794 9.24444Z" stroke="#42413D" stroke-linecap="round"/>
<path d="M32.2902 11.0308L25.3276 12.877L25.2274 12.9434C24.6391 13.3334 24.6744 14.2085 25.2922 14.5497V14.5497C25.3154 14.5626 25.3414 14.5693 25.3679 14.5693C25.9705 14.5693 26.6709 14.5693 27.4307 14.5693M32.2902 11.0308L25.1447 6.26033C24.0398 5.52269 24.5619 3.80005 25.8904 3.80005H27.6233C28.1499 3.80005 28.5768 4.22693 28.5768 4.75351V4.75351C28.5768 5.18843 28.8711 5.56823 29.2923 5.67679L32.6642 6.54604C32.7198 6.56036 32.7787 6.54314 32.8178 6.50115V6.50115C34.9858 4.17304 38.5551 3.8412 41.1151 5.72976L41.419 5.95389M32.2902 11.0308L36.9319 14.5693M41.419 5.95389C42.3473 5.49236 43.3994 4.01543 40.1812 1.80005C45.2871 3.80005 46.3701 5.95389 45.1323 7.6462C44.4015 7.6462 43.3109 7.83692 42.2572 8.41543M41.419 5.95389L35.3847 9.33851L39.1248 13.8M39.1248 13.8C39.1072 14.0469 39.0981 14.3032 39.0981 14.5693C38.7331 14.5693 37.9558 14.5693 36.9319 14.5693M39.1248 13.8C39.3354 10.844 40.7591 9.23785 42.2572 8.41543M36.9319 14.5693C34.4308 14.5693 30.4583 14.5693 27.4307 14.5693M42.2572 8.41543L44.9776 13.8M27.2201 12.2458C26.7609 11.5161 25.9455 11.0308 25.016 11.0308C23.5812 11.0308 22.418 12.1874 22.418 13.6141C22.418 15.0408 23.5812 16.1974 25.016 16.1974C26.1115 16.1974 27.0487 15.5232 27.4307 14.5693M42.2572 13.6141C42.2572 12.1874 43.4204 11.0308 44.8553 11.0308C46.2901 11.0308 47.4533 12.1874 47.4533 13.6141C47.4533 15.0408 46.2901 16.1974 44.8553 16.1974C43.4204 16.1974 42.2572 15.0408 42.2572 13.6141ZM44.7455 17.8V17.8C47.0821 17.8 49.0005 15.9059 49.0005 13.5693V13.5693C49.0005 11.2327 47.0821 9.33851 44.7455 9.33851V9.33851C42.4089 9.33851 40.4906 11.2327 40.4906 13.5693V13.5693C40.4906 15.9059 42.4089 17.8 44.7455 17.8Z" stroke="#42413D" stroke-linecap="round"/>
<path d="M28.8062 11.4693C28.0134 10.2265 26.6053 9.3999 25.0004 9.3999C22.5227 9.3999 20.5142 11.3698 20.5142 13.7999C20.5142 16.23 22.5227 18.1999 25.0003 18.1999C26.892 18.1999 28.5102 16.6516 29.1699 15.0268" stroke="#42413D" stroke-linecap="round"/>
<path d="M20.2555 6.6001V6.6001C20.0391 7.63892 20.573 8.68869 21.54 9.12562L23.0327 9.8001" stroke="#42413D" stroke-linecap="round"/>
</svg>
