<svg width="59" height="32" viewBox="0 0 59 32" fill="none" xmlns="http://www.w3.org/2000/svg">
<path d="M1.51562 2.00391H12.3349C12.7362 2.00391 13.0986 2.24378 13.2554 2.61316L21.2064 21.3441C21.3632 21.7135 21.7256 21.9533 22.1269 21.9533H39.5" stroke="#42413D" stroke-width="3" stroke-linecap="round"/>
<path d="M20.002 17.258H37.3775C37.7516 17.258 38.0945 17.0491 38.2661 16.7166L43.4925 6.59048C43.836 5.92491 43.3528 5.13184 42.6038 5.13184H40.502" stroke="#42413D" stroke-width="3" stroke-linecap="round"/>
<circle cx="21.5" cy="28.4998" r="3.5" fill="#42413D"/>
<circle cx="35.5" cy="28.4998" r="3.5" fill="#42413D"/>
<path d="M23.124 7.5C22.8067 7.78933 22.3353 7.934 21.71 7.934C20.87 7.934 20.198 7.69133 19.694 7.206C19.1713 6.702 18.91 5.96933 18.91 5.008C18.91 4.196 19.176 3.49133 19.708 2.894C20.2587 2.278 21.0007 1.97 21.934 1.97C23.1567 1.97 24.02 2.50667 24.524 3.58C24.8413 4.26133 25 5.12467 25 6.17C25 9.502 23.866 11.168 21.598 11.168C21.1687 11.168 20.73 11.0887 20.282 10.93C19.8433 10.762 19.4933 10.552 19.232 10.3L19.862 9.152C20.478 9.45067 21.038 9.6 21.542 9.6C22.018 9.6 22.4007 9.40867 22.69 9.026C22.9793 8.64333 23.124 8.13467 23.124 7.5ZM23.138 6.198C23.0913 5.22733 23.012 4.56467 22.9 4.21C22.7227 3.66867 22.41 3.398 21.962 3.398C21.654 3.398 21.388 3.55667 21.164 3.874C20.94 4.19133 20.828 4.56933 20.828 5.008C20.828 6.08133 21.2573 6.618 22.116 6.618C22.5173 6.618 22.858 6.478 23.138 6.198ZM30.3701 7.5C30.0528 7.78933 29.5814 7.934 28.9561 7.934C28.1161 7.934 27.4441 7.69133 26.9401 7.206C26.4174 6.702 26.1561 5.96933 26.1561 5.008C26.1561 4.196 26.4221 3.49133 26.9541 2.894C27.5048 2.278 28.2468 1.97 29.1801 1.97C30.4028 1.97 31.2661 2.50667 31.7701 3.58C32.0874 4.26133 32.2461 5.12467 32.2461 6.17C32.2461 9.502 31.1121 11.168 28.8441 11.168C28.4148 11.168 27.9761 11.0887 27.5281 10.93C27.0894 10.762 26.7394 10.552 26.4781 10.3L27.1081 9.152C27.7241 9.45067 28.2841 9.6 28.7881 9.6C29.2641 9.6 29.6468 9.40867 29.9361 9.026C30.2254 8.64333 30.3701 8.13467 30.3701 7.5ZM30.3841 6.198C30.3374 5.22733 30.2581 4.56467 30.1461 4.21C29.9688 3.66867 29.6561 3.398 29.2081 3.398C28.9001 3.398 28.6341 3.55667 28.4101 3.874C28.1861 4.19133 28.0741 4.56933 28.0741 5.008C28.0741 6.08133 28.5034 6.618 29.3621 6.618C29.7634 6.618 30.1041 6.478 30.3841 6.198ZM35.1522 8.536H32.9402V7.136H35.1522V4.644H36.7902V7.136H39.0162V8.536H36.7902V11H35.1522V8.536Z" fill="#F52E26"/>
<path d="M49.9788 17.8845H54.0127H58.0465L54.0127 25.9523L49.9788 17.8845Z" fill="#42413D"/>
</svg>
