<svg width="23" height="23" viewBox="0 0 23 23" fill="none" xmlns="http://www.w3.org/2000/svg">
<path d="M14.3176 3.05128V6.12821M14.3176 9.20513V13.8205M12.781 7.66667V1H22.0005V7.66667M12.781 7.66667V21H22.0005V7.66667M12.781 7.66667H22.0005M8.68341 1H11.2444V6.64103H8.68341M8.68341 1H1.00049V6.64103H8.68341M8.68341 1V6.64103M1.00049 11.2564V8.17949H11.2444V11.2564M1.00049 11.2564V21H11.2444V11.2564M1.00049 11.2564H11.2444M9.70781 9.71795H7.65902M3.04927 2.53846V5.10256H6.63463V2.53846H3.04927Z" stroke="#42413D" stroke-linecap="round"/>
<path d="M9.46745 15.5C9.46745 16.4185 9.08708 17.2473 8.47395 17.839C7.88891 18.4035 7.09415 18.75 6.21745 18.75C4.42252 18.75 2.96745 17.2949 2.96745 15.5C2.96745 13.7051 4.42252 12.25 6.21745 12.25C7.09416 12.25 7.88891 12.5965 8.47395 13.161C9.08708 13.7527 9.46745 14.5815 9.46745 15.5Z" stroke="#42413D"/>
<path d="M7.00023 14.4998C6.77539 14.2829 6.46944 14.1494 6.13232 14.1494C5.44197 14.1494 4.88232 14.7091 4.88232 15.3994C4.88232 16.0898 5.44197 16.6494 6.13232 16.6494C6.46944 16.6494 6.77539 16.516 7.00023 16.299" stroke="#42413D"/>
<path d="M2.00049 21V22M11.0005 22V21" stroke="#42413D" stroke-linecap="round"/>
<path d="M14.0005 22V21M21.0005 21V22" stroke="#42413D" stroke-linecap="round"/>
<path d="M3.61275 9H4.50759V9.99928H3.61275V9Z" fill="#42413D"/>
<path d="M2.00049 9.00072H2.89533V10H2.00049V9.00072Z" fill="#42413D"/>
<path d="M5.10564 9H6.00049V9.99928H5.10564V9Z" fill="#42413D"/>
<path d="M10.0005 3.28595L10.0005 3.99979L9.0012 3.99979L9.0012 3.28595L10.0005 3.28595Z" fill="#42413D"/>
<path d="M9.99977 1.99979L9.99977 2.71364L9.00049 2.71364L9.00049 1.99979L9.99977 1.99979Z" fill="#42413D"/>
<path d="M10.0005 5V6" stroke="#42413D"/>
</svg>
