<svg width="37" height="23" viewBox="0 0 37 23" fill="none" xmlns="http://www.w3.org/2000/svg">
<path d="M27.068 5.959H12.1636V12.5M27.068 5.959V3.15385M27.068 5.959V6.72664M27.068 17.7383H20.8128M27.068 17.7383V21C27.068 21.5523 27.5157 22 28.068 22H35.0004C35.5527 22 36.0004 21.5523 36.0004 21V10.1148M27.068 17.7383V10.1148M20.8128 20.0677H18.2901V17.7383H20.8128M20.8128 20.0677V17.7383M20.8128 20.0677H22.5741C23.1077 20.0677 23.5402 20.5002 23.5402 21.0338V21.0338C23.5402 21.5674 23.1077 22 22.5741 22L18.2526 22M27.068 3.15385V2C27.068 1.44772 27.5157 1 28.068 1H35.0004C35.5527 1 36.0004 1.44771 36.0004 2V3.15385M27.068 3.15385H36.0004M36.0004 3.15385V6.72664M36.0004 6.72664H27.068M36.0004 6.72664V10.1148M27.068 6.72664V10.1148M27.068 10.1148H36.0004M18.2901 16H25.3564V7.5H13.6858C13.6858 9.33333 13.6858 13 13.6858 13" stroke="#42413D"/>
<path d="M27.3325 4.76904H32.75" stroke="#42413D" stroke-linecap="round"/>
<path d="M30.041 8.53809H36.0002" stroke="#42413D" stroke-linecap="round"/>
<ellipse cx="31.667" cy="14.4614" rx="1.08349" ry="1.07692" fill="#42413D"/>
<path d="M31.6665 17.6921V19.846" stroke="#42413D" stroke-linecap="round"/>
<path d="M6.07471 16V22H18.2547V14.0539H14.1155L13.8184 13H10.5308L10.2337 14.0644M15.1121 15.4231H16.8218V16.4153H15.1121V15.4231Z" stroke="#42413D" stroke-linecap="round"/>
<path d="M14.1717 18.1924C14.1717 19.2385 13.2893 20.1154 12.1645 20.1154C11.0397 20.1154 10.1572 19.2385 10.1572 18.1924C10.1572 17.1462 11.0397 16.2693 12.1645 16.2693C13.2893 16.2693 14.1717 17.1462 14.1717 18.1924Z" stroke="#42413D"/>
<path d="M1.00049 15.5V1.5C1.00049 1.22386 1.22435 1 1.50049 1H9.634C9.91014 1 10.134 1.22386 10.134 1.5V15.5C10.134 15.7761 9.91014 16 9.634 16H1.50049C1.22435 16 1.00049 15.7761 1.00049 15.5Z" stroke="#42413D" stroke-linecap="round"/>
<path d="M2.52295 12V3.5H8.61196V12H2.52295Z" stroke="#42413D" stroke-linecap="round"/>
<mask id="path-10-inside-1_60_36733" fill="white">
<ellipse cx="5.8407" cy="13.7692" rx="0.780642" ry="0.769231"/>
</mask>
<ellipse cx="5.8407" cy="13.7692" rx="0.780642" ry="0.769231" fill="#42413D"/>
<path d="M5.62134 13.7692C5.62134 13.6279 5.73349 13.5385 5.8407 13.5385V15.5385C6.81019 15.5385 7.62134 14.7602 7.62134 13.7692H5.62134ZM5.8407 13.5385C5.94791 13.5385 6.06006 13.6279 6.06006 13.7692H4.06006C4.06006 14.7602 4.87121 15.5385 5.8407 15.5385V13.5385ZM6.06006 13.7692C6.06006 13.9105 5.94791 14 5.8407 14V12C4.87121 12 4.06006 12.7783 4.06006 13.7692H6.06006ZM5.8407 14C5.73349 14 5.62134 13.9105 5.62134 13.7692H7.62134C7.62134 12.7783 6.81019 12 5.8407 12V14Z" fill="#42413D" mask="url(#path-10-inside-1_60_36733)"/>
<mask id="path-12-inside-2_60_36733" fill="white">
<path d="M3.5376 2.38462C3.5376 2.1722 3.7098 2 3.92221 2H7.17338C7.3858 2 7.55799 2.1722 7.55799 2.38462C7.55799 2.59703 7.3858 2.76923 7.17338 2.76923H3.92221C3.7098 2.76923 3.5376 2.59703 3.5376 2.38462Z"/>
</mask>
<path d="M3.92221 3H7.17338V1H3.92221V3ZM7.17338 1.76923H3.92221V3.76923H7.17338V1.76923ZM3.92221 1.76923C4.26208 1.76923 4.5376 2.04475 4.5376 2.38462H2.5376C2.5376 3.14932 3.15751 3.76923 3.92221 3.76923V1.76923ZM6.55799 2.38462C6.55799 2.04475 6.83351 1.76923 7.17338 1.76923V3.76923C7.93808 3.76923 8.55799 3.14932 8.55799 2.38462H6.55799ZM7.17338 3C6.83351 3 6.55799 2.72448 6.55799 2.38462H8.55799C8.55799 1.61991 7.93808 1 7.17338 1V3ZM3.92221 1C3.15751 1 2.5376 1.61991 2.5376 2.38462H4.5376C4.5376 2.72448 4.26208 3 3.92221 3V1Z" fill="#42413D" mask="url(#path-12-inside-2_60_36733)"/>
</svg>
