<svg width="28" height="26" viewBox="0 0 28 26" fill="none" xmlns="http://www.w3.org/2000/svg">
<path d="M14.1827 6.91574L19.4154 9.70506L17.8939 12.8172L14.2698 12.8172L11.1777 12.8172L14.1827 6.91574Z" stroke="#42413D"/>
<path d="M19.3888 6.18262L20.1712 4.71499C20.3011 4.4713 20.2088 4.16846 19.9651 4.03856L18.557 3.28793C18.3133 3.15804 18.0104 3.25028 17.8805 3.49396L17.0982 4.96159" stroke="#42413D"/>
<path d="M19.696 9.2874L19.4162 6.44905C19.3998 6.28268 19.3014 6.13551 19.1538 6.05687L17.3355 5.0876C17.188 5.00896 17.0109 5.00925 16.8636 5.08838L14.3512 6.43834" stroke="#42413D" stroke-linecap="round"/>
<path d="M12.9541 9.12671L7.80202 9.16115C7.61852 9.16237 7.45045 9.26401 7.36413 9.42594L5.46917 12.9809" stroke="#42413D"/>
<path d="M14.6467 6.15996C13.1292 4.99779 10.9568 5.2859 9.79463 6.80347C9.26637 7.49329 9.03775 8.31839 9.08806 9.12242" stroke="#42413D"/>
<path d="M19.355 10.6616C20.4017 11.2196 21.2178 12.041 21.765 13.0004" stroke="#42413D"/>
<path d="M4.71717 15.7532C3.64278 14.909 4.23971 13.1831 5.60607 13.1831H22.2969C23.6632 13.1831 24.2602 14.909 23.1858 15.7532C23.0627 15.8499 22.9826 15.991 22.9626 16.1462L23.4584 16.2102L22.9626 16.1462L22.0369 23.3199C21.8761 24.5666 20.8145 25.5 19.5575 25.5H8.34549C7.08846 25.5 6.0269 24.5666 5.86604 23.3199L4.9404 16.1462C4.9404 16.1462 4.9404 16.1462 4.9404 16.1462C4.92038 15.991 4.84021 15.8499 4.71717 15.7532Z" stroke="#42413D"/>
<path d="M13.9512 15.5369V22.8294" stroke="#42413D" stroke-linecap="round"/>
<path d="M11.415 15.5369V22.8294" stroke="#42413D" stroke-linecap="round"/>
<path d="M8.87842 15.5369V22.8294" stroke="#42413D" stroke-linecap="round"/>
<path d="M16.4878 15.5369V22.8294" stroke="#42413D" stroke-linecap="round"/>
<path d="M19.0249 15.5369V22.8294" stroke="#42413D" stroke-linecap="round"/>
</svg>
