<svg width="25" height="23" viewBox="0 0 25 23" fill="none" xmlns="http://www.w3.org/2000/svg">
<path d="M16.1346 0.5C15.6715 0.5 15.269 0.817926 15.1618 1.26841L14.0669 5.86739C13.9173 6.49576 14.3938 7.09899 15.0397 7.09899H18.8054H22.571C23.217 7.09899 23.6934 6.49576 23.5439 5.86739L22.449 1.26841C22.3418 0.817925 21.9393 0.5 21.4762 0.5H16.1346Z" stroke="#42413D"/>
<path d="M2.27076 17.1758V17.6758H2.77076H12.987H13.487V17.1758V12.7231C13.487 12.167 13.9377 11.7163 14.4937 11.7163C15.0498 11.7163 15.5005 12.167 15.5005 12.7231V19.4271C15.5005 19.4749 15.4618 19.5136 15.414 19.5136H0.586976C0.53921 19.5136 0.500488 19.4749 0.500488 19.4271V12.6014C0.500488 12.1126 0.896778 11.7163 1.38563 11.7163C1.87447 11.7163 2.27076 12.1126 2.27076 12.6014V17.1758Z" stroke="#42413D"/>
<path d="M12.7034 17.3918H13.2034V16.8918V11.0945C13.2034 9.16149 11.6364 7.59448 9.70335 7.59448H6.05469C4.12169 7.59448 2.55469 9.16149 2.55469 11.0945V16.8918V17.3918H3.05469H12.7034Z" stroke="#42413D"/>
<path d="M2.50049 15.5001C2.50049 15.5001 3.62177 14.5068 7.87853 14.5068C12.1353 14.5068 13.5005 15.5 13.5005 15.5" stroke="#42413D"/>
<path d="M12.9087 21.9999C13.4245 21.9999 13.5537 20.0134 13.5537 20.0134H12.1348C12.1348 20.0134 12.3929 21.9999 12.9087 21.9999Z" stroke="#42413D"/>
<path d="M2.84809 21.9999C2.33229 21.9999 2.20312 20.0134 2.20312 20.0134H3.62205C3.62205 20.0134 3.36397 21.9999 2.84809 21.9999Z" stroke="#42413D"/>
</svg>
