<svg width="10" height="11" viewBox="0 0 10 11" fill="none" xmlns="http://www.w3.org/2000/svg">
<circle cx="5" cy="5" r="4.5" stroke="#BFBFBF"/>
<path d="M5.47203 4.276V7H4.71003V4.276H5.47203ZM4.62003 3.58C4.62003 3.452 4.66403 3.342 4.75203 3.25C4.84403 3.154 4.95203 3.106 5.07603 3.106C5.20803 3.106 5.32003 3.152 5.41203 3.244C5.50803 3.336 5.55603 3.448 5.55603 3.58C5.55603 3.72 5.51003 3.834 5.41803 3.922C5.33003 4.01 5.21603 4.054 5.07603 4.054C4.94403 4.054 4.83403 4.01 4.74603 3.922C4.66203 3.83 4.62003 3.716 4.62003 3.58Z" fill="#BFBFBF"/>
</svg>
