<svg width="23" height="23" viewBox="0 0 23 23" fill="none" xmlns="http://www.w3.org/2000/svg">
<path d="M5.11438 2.26846L0.999512 5.36913L2.70221 9.1745L5.11438 8.61074M5.11438 2.26846L8.37789 1M5.11438 2.26846C5.77654 3.39597 6.70357 6.24295 5.11438 8.61074M8.37789 1C9.22924 1 13.486 1 14.3374 1M8.37789 1C8.37789 4.80537 10.3644 4.80537 11.4995 4.80537C12.6346 4.80537 14.3374 4.52349 14.3374 1M14.3374 1L17.7428 2.26846M17.7428 2.26846L21.9995 5.36913L20.2968 9.1745L17.7428 8.61074M17.7428 2.26846C16.2671 4.9745 17.1279 7.62416 17.7428 8.61074M17.7428 8.61074C17.9792 9.87919 18.3103 12.8671 17.7428 14.6711C18.0428 16.0866 18.3593 17.7441 18.5941 19.0175M5.11438 8.61074C4.54681 10.6403 4.7833 13.5906 4.97248 14.8121L4.16958 18.8993M4.16958 18.8993L3.83735 20.5906L9.37113 22L9.85486 20.5906M4.16958 18.8993L9.85486 20.5906M9.85486 20.5906L10.5841 18.4659C10.8898 17.5751 12.1452 17.5623 12.469 18.4468L13.2538 20.5906M13.2538 20.5906L13.7698 22L18.8779 20.5906C18.8137 20.224 18.7147 19.6714 18.5941 19.0175M13.2538 20.5906L18.5941 19.0175" stroke="#42413D" stroke-linecap="round"/>
<circle cx="11.4995" cy="11.5" r="3" stroke="#42413D"/>
<path d="M9.99951 8.5C9.75235 7.97049 9.20511 7.60238 8.56971 7.60238C7.70251 7.60238 6.99951 8.28807 6.99951 9.13391C6.99951 9.82814 7.47307 10.4145 8.1223 10.6024" stroke="#42413D"/>
<path d="M13.0435 8.50414C13.256 7.91903 13.8275 7.5 14.4992 7.5C15.3521 7.5 16.0435 8.17555 16.0435 9.00887C16.0435 9.76326 15.4769 10.3883 14.7368 10.5" stroke="#42413D"/>
<path d="M12.4995 12.5C12.4995 12.7761 11.7757 13.5 11.4995 13.5C11.2234 13.5 10.4995 12.7761 10.4995 12.5C10.4995 12.2239 11.2234 11.5 11.4995 11.5C11.7757 11.5 12.4995 12.2239 12.4995 12.5Z" fill="#42413D"/>
<path d="M10.9995 10.5C10.9995 10.7761 10.7757 11 10.4995 11C10.2234 11 9.99951 10.7761 9.99951 10.5C9.99951 10.2239 10.2234 10 10.4995 10C10.7757 10 10.9995 10.2239 10.9995 10.5Z" fill="#42413D"/>
<path d="M12.9995 10.5C12.9995 10.7761 12.7757 11 12.4995 11C12.2234 11 11.9995 10.7761 11.9995 10.5C11.9995 10.2239 12.2234 10 12.4995 10C12.7757 10 12.9995 10.2239 12.9995 10.5Z" fill="#42413D"/>
</svg>
