<svg width="350" height="40" viewBox="0 0 350 40" fill="none" xmlns="http://www.w3.org/2000/svg">
<g filter="url(#filter0_i_60_39512)">
<rect width="350" height="40" rx="10" fill="#F7DF2A"/>
</g>
<path d="M160.835 23.585V26H152.99V15.26H155.795V23.585H160.835ZM167.123 14.99C168.793 14.99 170.123 15.58 171.113 16.76C171.963 17.79 172.388 19.08 172.388 20.63C172.388 22.42 171.838 23.84 170.738 24.89C169.778 25.81 168.573 26.27 167.123 26.27C165.423 26.27 164.073 25.68 163.073 24.5C162.213 23.48 161.783 22.19 161.783 20.63C161.783 18.84 162.313 17.44 163.373 16.43C164.393 15.47 165.643 14.99 167.123 14.99ZM167.108 17.3C166.298 17.3 165.668 17.64 165.218 18.32C164.828 18.9 164.633 19.665 164.633 20.615C164.633 21.725 164.883 22.58 165.383 23.18C165.823 23.7 166.403 23.96 167.123 23.96C167.883 23.96 168.478 23.665 168.908 23.075C169.338 22.475 169.553 21.64 169.553 20.57C169.553 19.48 169.303 18.645 168.803 18.065C168.373 17.555 167.808 17.3 167.108 17.3ZM183.778 20.165V26H181.978C181.878 25.54 181.828 25.21 181.828 25.01C181.828 24.99 181.828 24.965 181.828 24.935C181.828 24.895 181.828 24.86 181.828 24.83C181.068 25.79 179.993 26.27 178.603 26.27C176.953 26.27 175.648 25.685 174.688 24.515C173.858 23.495 173.443 22.21 173.443 20.66C173.443 18.86 174.013 17.43 175.153 16.37C176.143 15.45 177.388 14.99 178.888 14.99C180.248 14.99 181.378 15.4 182.278 16.22C183.058 16.93 183.503 17.825 183.613 18.905H180.898C180.658 17.835 179.973 17.3 178.843 17.3C178.023 17.3 177.393 17.595 176.953 18.185C176.513 18.765 176.293 19.6 176.293 20.69C176.293 22.87 177.183 23.96 178.963 23.96C180.273 23.96 181.023 23.36 181.213 22.16H179.263V20.165H183.778ZM188.402 15.26V26H185.597V15.26H188.402ZM199.688 15.26V26H196.958L194.063 21.125L193.448 20.03C193.338 19.85 193.188 19.545 192.998 19.115C193.068 19.905 193.103 20.815 193.103 21.845V26H190.373V15.26H193.208L195.878 19.805C196.398 20.705 196.798 21.455 197.078 22.055C196.998 21.005 196.958 20.08 196.958 19.28V15.26H199.688Z" fill="#42413D"/>
<defs>
<filter id="filter0_i_60_39512" x="0" y="0" width="350" height="40" filterUnits="userSpaceOnUse" color-interpolation-filters="sRGB">
<feFlood flood-opacity="0" result="BackgroundImageFix"/>
<feBlend mode="normal" in="SourceGraphic" in2="BackgroundImageFix" result="shape"/>
<feColorMatrix in="SourceAlpha" type="matrix" values="0 0 0 0 0 0 0 0 0 0 0 0 0 0 0 0 0 0 127 0" result="hardAlpha"/>
<feOffset/>
<feGaussianBlur stdDeviation="5"/>
<feComposite in2="hardAlpha" operator="arithmetic" k2="-1" k3="1"/>
<feColorMatrix type="matrix" values="0 0 0 0 1 0 0 0 0 1 0 0 0 0 1 0 0 0 1 0"/>
<feBlend mode="normal" in2="shape" result="effect1_innerShadow_60_39512"/>
</filter>
</defs>
</svg>
