<svg width="23" height="23" viewBox="0 0 23 23" fill="none" xmlns="http://www.w3.org/2000/svg">
<path d="M4.54779 11.4639L0.999512 9.58766L2.80986 3.38145L7.51675 1M7.51675 1H15.1926M7.51675 1C7.51675 3.38145 9.76158 4.68043 11.3547 4.68043C12.9478 4.68043 15.1926 3.38145 15.1926 1M15.1926 1C17.1156 1.93001 20.1168 3.38145 20.1168 3.38145L21.9995 9.58766L18.3064 11.6082M4.54779 7.42263V19.9794C4.54779 19.9794 4.54779 21.4911 8.99951 21.8994M18.3064 7.42263V19.9794C18.3064 19.9794 18.3064 21.3414 14.4995 21.8289M14.4995 17V21.8289M14.4995 21.8289C13.6695 21.9353 12.6585 22 11.4271 22C10.4981 22 9.69455 21.9632 8.99951 21.8994M8.99951 15V21.8994" stroke="#42413D" stroke-linecap="round"/>
</svg>
