<svg width="37" height="38" viewBox="0 0 37 38" fill="none" xmlns="http://www.w3.org/2000/svg">
<path d="M4.18961 35.2169L4.17694 35.2239L4.16448 35.2312L3.98124 35.3385C3.73084 35.4851 3.45672 35.5707 3.17895 35.5963L19.0846 20.3218L23.5068 24.6411L4.18961 35.2169Z" stroke="#F52E26" stroke-width="2"/>
<path d="M3.63781 2.49961L23.6248 13.2189L19.0923 17.5451L3.25865 2.33946C3.35212 2.36605 3.44388 2.4017 3.53267 2.44652L3.63781 2.49961Z" stroke="#4BAE50" stroke-width="2"/>
<path d="M25.3497 23.6431L20.5322 18.9376L25.4805 14.2142L30.9355 17.1515C32.3421 17.909 32.3368 19.9285 30.9261 20.6784L25.3497 23.6431Z" stroke="#F7DF2A" stroke-width="2"/>
<path d="M1 33.9201V4.26242L1.02717 3.93641C1.04919 3.67214 1.13361 3.42096 1.26921 3.20127C4.22885 6.04984 6.72104 8.43906 9.2434 10.8572L9.35431 10.9635C11.9086 13.4123 14.5013 15.898 17.6495 18.9282L1.23249 34.6937C1.08342 34.4681 1 34.2001 1 33.9201Z" stroke="#2095F3" stroke-width="2"/>
</svg>
