<svg width="191" height="61" viewBox="0 0 191 61" fill="none" xmlns="http://www.w3.org/2000/svg">
<path d="M20.1399 17.7611H19.4519C19.4359 17.0144 18.9586 16.6411 18.0199 16.6411C17.6359 16.6411 17.3266 16.7291 17.0919 16.9051C16.8573 17.0757 16.7399 17.3024 16.7399 17.5851C16.7399 17.7984 16.8093 17.9691 16.9479 18.0971C17.0919 18.2197 17.3373 18.3264 17.6839 18.4171L19.0439 18.7691C19.9079 18.9984 20.3399 19.4784 20.3399 20.2091C20.3399 20.7371 20.1293 21.1664 19.7079 21.4971C19.3346 21.7851 18.7986 21.9291 18.0999 21.9291C17.2146 21.9291 16.5719 21.6624 16.1719 21.1291C15.9586 20.8411 15.8466 20.4544 15.8359 19.9691H16.5239V19.9851C16.5239 20.4011 16.6653 20.7237 16.9479 20.9531C17.2359 21.1771 17.6359 21.2891 18.1479 21.2891C18.6173 21.2891 18.9666 21.2117 19.1959 21.0571C19.4679 20.8704 19.6039 20.6091 19.6039 20.2731C19.6039 19.8464 19.2546 19.5451 18.5559 19.3691L17.1319 19.0011C16.3853 18.8091 16.0119 18.3691 16.0119 17.6811C16.0119 17.1371 16.2173 16.7157 16.6279 16.4171C16.9853 16.1557 17.4573 16.0251 18.0439 16.0251C18.8759 16.0251 19.4706 16.2677 19.8279 16.7531C20.0359 17.0357 20.1399 17.3424 20.1399 17.6731C20.1399 17.6891 20.1399 17.7184 20.1399 17.7611ZM21.2541 16.1131H21.9021V18.3051C22.0995 18.0597 22.2968 17.8891 22.4941 17.7931C22.6915 17.6917 22.9368 17.6411 23.2301 17.6411C23.6301 17.6411 23.9448 17.7424 24.1741 17.9451C24.4035 18.1424 24.5181 18.4144 24.5181 18.7611V21.8411H23.8701V19.0251C23.8701 18.7371 23.7821 18.5264 23.6061 18.3931C23.4408 18.2704 23.2461 18.2091 23.0221 18.2091C22.6861 18.2091 22.4141 18.3344 22.2061 18.5851C22.0035 18.8357 21.9021 19.1691 21.9021 19.5851V21.8411H21.2541V16.1131ZM26.2373 17.7291V21.8411H25.5893V17.7291H26.2373ZM25.9253 16.1211C26.0373 16.1211 26.1307 16.1611 26.2053 16.2411C26.2853 16.3157 26.3253 16.4064 26.3253 16.5131C26.3253 16.6251 26.2853 16.7211 26.2053 16.8011C26.1307 16.8757 26.0373 16.9131 25.9253 16.9131C25.8187 16.9131 25.7253 16.8757 25.6453 16.8011C25.5707 16.7211 25.5333 16.6251 25.5333 16.5131C25.5333 16.4064 25.5707 16.3157 25.6453 16.2411C25.7253 16.1611 25.8187 16.1211 25.9253 16.1211ZM27.2355 23.5531V17.7291H27.8435V18.3611C28.1475 17.8811 28.5848 17.6411 29.1555 17.6411C29.7368 17.6411 30.1848 17.8651 30.4995 18.3131C30.7768 18.7024 30.9155 19.2144 30.9155 19.8491C30.9155 20.5264 30.7342 21.0544 30.3715 21.4331C30.0568 21.7637 29.6488 21.9291 29.1475 21.9291C28.6408 21.9291 28.2222 21.7451 27.8915 21.3771V23.5531H27.2355ZM29.0435 18.2491C28.6968 18.2491 28.4168 18.3904 28.2035 18.6731C27.9955 18.9557 27.8915 19.3344 27.8915 19.8091C27.8915 20.2997 28.0115 20.6837 28.2515 20.9611C28.4542 21.1957 28.7182 21.3131 29.0435 21.3131C29.4062 21.3131 29.6942 21.1771 29.9075 20.9051C30.1262 20.6277 30.2355 20.2624 30.2355 19.8091C30.2355 19.3077 30.1128 18.9131 29.8675 18.6251C29.6488 18.3744 29.3742 18.2491 29.0435 18.2491ZM35.7114 16.0251C36.5968 16.0251 37.2954 16.3317 37.8074 16.9451C38.2501 17.4784 38.4714 18.1557 38.4714 18.9771C38.4714 19.9211 38.1861 20.6677 37.6154 21.2171C37.1141 21.6917 36.4794 21.9291 35.7114 21.9291C34.8208 21.9291 34.1194 21.6224 33.6074 21.0091C33.1648 20.4757 32.9434 19.7984 32.9434 18.9771C32.9434 18.0331 33.2314 17.2864 33.8074 16.7371C34.3034 16.2624 34.9381 16.0251 35.7114 16.0251ZM35.7034 16.6731C35.0528 16.6731 34.5381 16.9104 34.1594 17.3851C33.8341 17.8011 33.6714 18.3317 33.6714 18.9771C33.6714 19.7184 33.8821 20.3024 34.3034 20.7291C34.6714 21.0971 35.1381 21.2811 35.7034 21.2811C36.3594 21.2811 36.8768 21.0437 37.2554 20.5691C37.5808 20.1531 37.7434 19.6224 37.7434 18.9771C37.7434 18.2357 37.5328 17.6517 37.1114 17.2251C36.7434 16.8571 36.2741 16.6731 35.7034 16.6731ZM39.3088 17.7291H39.9168V18.4251C40.2475 17.9024 40.7008 17.6411 41.2768 17.6411C41.6768 17.6411 41.9942 17.7424 42.2288 17.9451C42.4635 18.1424 42.5808 18.4091 42.5808 18.7451V21.8411H41.9328V19.0091C41.9328 18.7637 41.8555 18.5691 41.7008 18.4251C41.5515 18.2811 41.3462 18.2091 41.0848 18.2091C40.7435 18.2091 40.4715 18.3344 40.2688 18.5851C40.0662 18.8357 39.9648 19.1691 39.9648 19.5851V21.8411H39.3088V17.7291ZM23.3494 25.7611V30.8411H22.6214V25.7611H20.7334V25.1131H25.2214V25.7611H23.3494ZM26.5303 26.7291V30.8411H25.8823V26.7291H26.5303ZM26.2183 25.1211C26.3303 25.1211 26.4236 25.1611 26.4983 25.2411C26.5783 25.3157 26.6183 25.4064 26.6183 25.5131C26.6183 25.6251 26.5783 25.7211 26.4983 25.8011C26.4236 25.8757 26.3303 25.9131 26.2183 25.9131C26.1116 25.9131 26.0183 25.8757 25.9383 25.8011C25.8636 25.7211 25.8263 25.6251 25.8263 25.5131C25.8263 25.4064 25.8636 25.3157 25.9383 25.2411C26.0183 25.1611 26.1116 25.1211 26.2183 25.1211ZM27.6565 26.7291H28.2645V27.3211C28.5845 26.8677 29.0058 26.6411 29.5285 26.6411C30.0351 26.6411 30.4031 26.8437 30.6325 27.2491C30.8298 27.0197 31.0191 26.8624 31.2005 26.7771C31.3871 26.6864 31.6165 26.6411 31.8885 26.6411C32.6885 26.6411 33.0885 27.0171 33.0885 27.7691V30.8411H32.4325V28.0251C32.4325 27.4811 32.1765 27.2091 31.6645 27.2091C31.3978 27.2091 31.1711 27.3131 30.9845 27.5211C30.7978 27.7291 30.7045 27.9771 30.7045 28.2651V30.8411H30.0485V28.0251C30.0485 27.4811 29.7951 27.2091 29.2885 27.2091C29.0165 27.2091 28.7845 27.3131 28.5925 27.5211C28.4058 27.7237 28.3125 27.9717 28.3125 28.2651V30.8411H27.6565V26.7291ZM37.6754 28.9771H34.6434C34.6487 29.3291 34.7234 29.6091 34.8674 29.8171C35.0967 30.1531 35.4274 30.3211 35.8594 30.3211C36.3927 30.3211 36.7527 30.0677 36.9394 29.5611H37.5954C37.51 29.9931 37.3127 30.3291 37.0034 30.5691C36.694 30.8091 36.3047 30.9291 35.8354 30.9291C35.2114 30.9291 34.734 30.7157 34.4034 30.2891C34.11 29.9157 33.9634 29.4224 33.9634 28.8091C33.9634 28.0997 34.1554 27.5477 34.5394 27.1531C34.8754 26.8117 35.31 26.6411 35.8434 26.6411C36.2327 26.6411 36.574 26.7344 36.8674 26.9211C37.166 27.1077 37.3794 27.3637 37.5074 27.6891C37.6194 27.9664 37.6754 28.3877 37.6754 28.9531V28.9771ZM36.9714 28.4411C36.9714 28.0837 36.8647 27.7957 36.6514 27.5771C36.4434 27.3531 36.174 27.2411 35.8434 27.2411C35.5074 27.2411 35.2327 27.3504 35.0194 27.5691C34.8114 27.7824 34.694 28.0731 34.6674 28.4411H36.9714Z" fill="#42413D"/>
<path d="M24.401 38.4869V39.6389L21.809 46.3589L20.909 47.0789H19.541L22.349 40.0349H18.749V38.4869H24.401ZM29.876 38.4869V40.0349H27.356L27.272 41.6789C27.408 41.6709 27.528 41.6669 27.632 41.6669C28.6 41.6669 29.34 41.9589 29.852 42.5429C30.3 43.0469 30.524 43.7269 30.524 44.5829C30.524 45.4629 30.18 46.1349 29.492 46.5989C28.948 46.9669 28.272 47.1509 27.464 47.1509C26.936 47.1509 26.404 47.0949 25.868 46.9829L25.34 46.3229V45.5909C25.964 45.7029 26.468 45.7589 26.852 45.7589C27.532 45.7589 28.008 45.6629 28.28 45.4709C28.552 45.2789 28.688 44.9389 28.688 44.4509C28.688 43.9469 28.564 43.5909 28.316 43.3829C28.068 43.1669 27.652 43.0589 27.068 43.0589C26.756 43.0589 26.276 43.0989 25.628 43.1789C25.54 43.1949 25.468 43.2029 25.412 43.2029L25.676 38.4869H29.876ZM33.2432 38.7389C33.8992 38.7389 34.4112 38.9829 34.7792 39.4709C35.1312 39.9349 35.3072 40.5349 35.3072 41.2709C35.3072 42.0069 35.1272 42.5949 34.7672 43.0349C34.4152 43.4749 33.9112 43.6949 33.2552 43.6949C32.5672 43.6949 32.0432 43.4629 31.6832 42.9989C31.3472 42.5669 31.1792 41.9949 31.1792 41.2829C31.1792 40.5629 31.3472 39.9629 31.6832 39.4829C32.0432 38.9869 32.5632 38.7389 33.2432 38.7389ZM39.1112 39.0029L34.3592 47.0789H32.9192L37.6712 39.0029H39.1112ZM33.2432 39.6269C32.9312 39.6269 32.7072 39.8189 32.5712 40.2029C32.4752 40.5549 32.4272 40.9149 32.4272 41.2829C32.4272 41.7069 32.4872 42.0629 32.6072 42.3509C32.7432 42.6549 32.9552 42.8069 33.2432 42.8069C33.5392 42.8069 33.7552 42.6469 33.8912 42.3269C33.9952 42.0229 34.0472 41.6749 34.0472 41.2829C34.0472 40.9709 34.0032 40.6229 33.9152 40.2389C33.7712 39.8309 33.5472 39.6269 33.2432 39.6269ZM38.9192 42.4349C39.5672 42.4349 40.0752 42.6789 40.4432 43.1669C40.8032 43.6229 40.9832 44.2229 40.9832 44.9669C40.9832 45.7109 40.8032 46.2989 40.4432 46.7309C40.0912 47.1709 39.5832 47.3909 38.9192 47.3909C38.2392 47.3909 37.7192 47.1589 37.3592 46.6949C37.0232 46.2709 36.8552 45.6989 36.8552 44.9789C36.8552 44.2509 37.0232 43.6509 37.3592 43.1789C37.7272 42.6829 38.2472 42.4349 38.9192 42.4349ZM38.9192 43.3229C38.6152 43.3229 38.3952 43.5149 38.2592 43.8989C38.1632 44.2269 38.1152 44.5869 38.1152 44.9789C38.1152 45.4029 38.1712 45.7589 38.2832 46.0469C38.4112 46.3509 38.6232 46.5029 38.9192 46.5029C39.2072 46.5029 39.4192 46.3429 39.5552 46.0229C39.6752 45.7109 39.7352 45.3629 39.7352 44.9789C39.7352 44.6509 39.6872 44.3029 39.5912 43.9349C39.4472 43.5269 39.2232 43.3229 38.9192 43.3229Z" fill="#03A400"/>
<circle cx="29.7973" cy="30.4977" r="27.5473" stroke="#FFF5D3" stroke-width="0.5"/>
<path d="M2 30.4977C2 45.8498 14.4453 58.295 29.7973 58.295C45.1493 58.295 57.5946 45.8498 57.5946 30.4977C57.5946 15.1457 45.1493 2.70044 29.7973 2.70044" stroke="#F7DF2A" stroke-width="4"/>
<path d="M157.506 10.7894H156.754C156.674 10.4054 156.535 10.1254 156.338 9.94938C156.082 9.71471 155.709 9.59738 155.218 9.59738C154.621 9.59738 154.159 9.83205 153.834 10.3014C153.551 10.712 153.41 11.2507 153.41 11.9174C153.41 12.6694 153.599 13.2534 153.978 13.6694C154.314 14.0267 154.746 14.2054 155.274 14.2054C155.919 14.2054 156.365 13.968 156.61 13.4934C156.722 13.2747 156.81 12.984 156.874 12.6214H157.626C157.45 14.1094 156.669 14.8534 155.282 14.8534C154.535 14.8534 153.946 14.6347 153.514 14.1974C152.959 13.6374 152.682 12.8854 152.682 11.9414C152.682 11.024 152.949 10.2694 153.482 9.67738C153.919 9.19205 154.522 8.94938 155.29 8.94938C156.538 8.94938 157.277 9.56271 157.506 10.7894ZM158.53 9.03738H159.178V11.2294C159.375 10.984 159.572 10.8134 159.77 10.7174C159.967 10.616 160.212 10.5654 160.506 10.5654C160.906 10.5654 161.22 10.6667 161.45 10.8694C161.679 11.0667 161.794 11.3387 161.794 11.6854V14.7654H161.146V11.9494C161.146 11.6614 161.058 11.4507 160.882 11.3174C160.716 11.1947 160.522 11.1334 160.298 11.1334C159.962 11.1334 159.69 11.2587 159.482 11.5094C159.279 11.76 159.178 12.0934 159.178 12.5094V14.7654H158.53V9.03738ZM166.545 14.2134V14.7414C166.364 14.8054 166.222 14.8374 166.121 14.8374C165.694 14.8374 165.462 14.6427 165.425 14.2534C165.132 14.6534 164.665 14.8534 164.025 14.8534C163.582 14.8534 163.238 14.7307 162.993 14.4854C162.78 14.272 162.673 13.9974 162.673 13.6614C162.673 13.2774 162.809 12.9814 163.081 12.7734C163.236 12.656 163.558 12.5414 164.049 12.4294L165.393 12.1254L165.401 11.7814C165.401 11.3707 165.092 11.1654 164.473 11.1654C163.881 11.1654 163.564 11.4054 163.521 11.8854H162.857C162.873 11.5227 162.964 11.2454 163.129 11.0534C163.412 10.728 163.87 10.5654 164.505 10.5654C165.534 10.5654 166.049 10.9387 166.049 11.6854V13.9814C166.049 14.184 166.137 14.2854 166.313 14.2854C166.334 14.2854 166.39 14.2694 166.481 14.2374C166.513 14.2267 166.534 14.2187 166.545 14.2134ZM165.401 12.6614L164.345 12.9334C163.966 13.0294 163.705 13.128 163.561 13.2294C163.422 13.3307 163.353 13.472 163.353 13.6534C163.353 14.0747 163.625 14.2854 164.169 14.2854C164.553 14.2854 164.878 14.16 165.145 13.9094C165.316 13.7547 165.401 13.5787 165.401 13.3814V12.6614ZM168.872 10.6534V11.1814H168.032V13.9174C168.032 14.0134 168.064 14.096 168.128 14.1654C168.198 14.2294 168.286 14.2614 168.392 14.2614C168.494 14.2614 168.648 14.2374 168.856 14.1894L168.928 14.7654C168.598 14.824 168.347 14.8534 168.176 14.8534C167.648 14.8534 167.384 14.6374 167.384 14.2054V11.1814H166.824V10.6534H167.384V9.81338L168.032 9.51738V10.6534H168.872ZM144.469 19.3014V21.7654H143.741V16.0374H146.373C146.981 16.0374 147.434 16.1867 147.733 16.4854C147.994 16.7467 148.125 17.1094 148.125 17.5734C148.125 17.8987 148.053 18.168 147.909 18.3814C147.77 18.5947 147.538 18.7814 147.213 18.9414C147.474 19.0427 147.666 19.1787 147.789 19.3494C147.912 19.5254 147.981 19.8854 147.997 20.4294C148.008 20.8294 148.032 21.0987 148.069 21.2374C148.112 21.3707 148.202 21.4854 148.341 21.5814V21.7654H147.461C147.344 21.52 147.285 21.2614 147.285 20.9894L147.293 20.0934C147.293 20.0347 147.269 19.944 147.221 19.8214C147.173 19.6987 147.128 19.6107 147.085 19.5574C146.941 19.3867 146.696 19.3014 146.349 19.3014H144.469ZM144.469 18.6534H146.237C146.989 18.6534 147.365 18.3254 147.365 17.6694C147.365 17.0134 146.989 16.6854 146.237 16.6854H144.469V18.6534ZM152.709 19.9014H149.677C149.682 20.2534 149.757 20.5334 149.901 20.7414C150.13 21.0774 150.461 21.2454 150.893 21.2454C151.426 21.2454 151.786 20.992 151.973 20.4854H152.629C152.543 20.9174 152.346 21.2534 152.037 21.4934C151.727 21.7334 151.338 21.8534 150.869 21.8534C150.245 21.8534 149.767 21.64 149.437 21.2134C149.143 20.84 148.997 20.3467 148.997 19.7334C148.997 19.024 149.189 18.472 149.573 18.0774C149.909 17.736 150.343 17.5654 150.877 17.5654C151.266 17.5654 151.607 17.6587 151.901 17.8454C152.199 18.032 152.413 18.288 152.541 18.6134C152.653 18.8907 152.709 19.312 152.709 19.8774V19.9014ZM152.005 19.3654C152.005 19.008 151.898 18.72 151.685 18.5014C151.477 18.2774 151.207 18.1654 150.877 18.1654C150.541 18.1654 150.266 18.2747 150.053 18.4934C149.845 18.7067 149.727 18.9974 149.701 19.3654H152.005ZM156.524 18.7814H155.804C155.783 18.3707 155.508 18.1654 154.98 18.1654C154.708 18.1654 154.492 18.2187 154.332 18.3254C154.177 18.4267 154.1 18.5654 154.1 18.7414C154.1 19.008 154.353 19.2 154.86 19.3174L155.492 19.4614C155.903 19.5574 156.199 19.6934 156.38 19.8694C156.561 20.0454 156.652 20.2854 156.652 20.5894C156.652 20.9787 156.5 21.288 156.196 21.5174C155.892 21.7414 155.481 21.8534 154.964 21.8534C154.399 21.8534 153.969 21.72 153.676 21.4534C153.431 21.2347 153.3 20.944 153.284 20.5814H154.028C154.071 20.768 154.129 20.904 154.204 20.9894C154.348 21.16 154.617 21.2454 155.012 21.2454C155.305 21.2454 155.537 21.192 155.708 21.0854C155.884 20.9734 155.972 20.8267 155.972 20.6454C155.972 20.3734 155.761 20.1867 155.34 20.0854L154.724 19.9414C154.255 19.8294 153.927 19.696 153.74 19.5414C153.527 19.3654 153.42 19.112 153.42 18.7814C153.42 18.408 153.561 18.112 153.844 17.8934C154.132 17.6747 154.516 17.5654 154.996 17.5654C155.497 17.5654 155.887 17.6907 156.164 17.9414C156.404 18.16 156.524 18.44 156.524 18.7814ZM157.406 23.4774V17.6534H158.014V18.2854C158.318 17.8054 158.755 17.5654 159.326 17.5654C159.907 17.5654 160.355 17.7894 160.67 18.2374C160.947 18.6267 161.086 19.1387 161.086 19.7734C161.086 20.4507 160.904 20.9787 160.542 21.3574C160.227 21.688 159.819 21.8534 159.318 21.8534C158.811 21.8534 158.392 21.6694 158.062 21.3014V23.4774H157.406ZM159.214 18.1734C158.867 18.1734 158.587 18.3147 158.374 18.5974C158.166 18.88 158.062 19.2587 158.062 19.7334C158.062 20.224 158.182 20.608 158.422 20.8854C158.624 21.12 158.888 21.2374 159.214 21.2374C159.576 21.2374 159.864 21.1014 160.078 20.8294C160.296 20.552 160.406 20.1867 160.406 19.7334C160.406 19.232 160.283 18.8374 160.038 18.5494C159.819 18.2987 159.544 18.1734 159.214 18.1734ZM163.509 17.5654C164.128 17.5654 164.6 17.7814 164.925 18.2134C165.213 18.5867 165.357 19.0934 165.357 19.7334C165.357 20.448 165.17 20.992 164.797 21.3654C164.477 21.6907 164.045 21.8534 163.501 21.8534C162.872 21.8534 162.392 21.6427 162.061 21.2214C161.773 20.8534 161.629 20.3574 161.629 19.7334C161.629 19.008 161.818 18.4507 162.197 18.0614C162.522 17.7307 162.96 17.5654 163.509 17.5654ZM163.509 18.1654C163.136 18.1654 162.842 18.3067 162.629 18.5894C162.416 18.8667 162.309 19.248 162.309 19.7334C162.309 20.24 162.429 20.6267 162.669 20.8934C162.877 21.128 163.154 21.2454 163.501 21.2454C163.869 21.2454 164.154 21.112 164.357 20.8454C164.565 20.5787 164.669 20.208 164.669 19.7334C164.669 19.2107 164.552 18.8107 164.317 18.5334C164.114 18.288 163.845 18.1654 163.509 18.1654ZM166.268 17.6534H166.876V18.3494C167.207 17.8267 167.66 17.5654 168.236 17.5654C168.636 17.5654 168.953 17.6667 169.188 17.8694C169.423 18.0667 169.54 18.3334 169.54 18.6694V21.7654H168.892V18.9334C168.892 18.688 168.815 18.4934 168.66 18.3494C168.511 18.2054 168.305 18.1334 168.044 18.1334C167.703 18.1334 167.431 18.2587 167.228 18.5094C167.025 18.76 166.924 19.0934 166.924 19.5094V21.7654H166.268V17.6534ZM173.555 18.7814H172.835C172.814 18.3707 172.539 18.1654 172.011 18.1654C171.739 18.1654 171.523 18.2187 171.363 18.3254C171.209 18.4267 171.131 18.5654 171.131 18.7414C171.131 19.008 171.385 19.2 171.891 19.3174L172.523 19.4614C172.934 19.5574 173.23 19.6934 173.411 19.8694C173.593 20.0454 173.683 20.2854 173.683 20.5894C173.683 20.9787 173.531 21.288 173.227 21.5174C172.923 21.7414 172.513 21.8534 171.995 21.8534C171.43 21.8534 171.001 21.72 170.707 21.4534C170.462 21.2347 170.331 20.944 170.315 20.5814H171.059C171.102 20.768 171.161 20.904 171.235 20.9894C171.379 21.16 171.649 21.2454 172.043 21.2454C172.337 21.2454 172.569 21.192 172.739 21.0854C172.915 20.9734 173.003 20.8267 173.003 20.6454C173.003 20.3734 172.793 20.1867 172.371 20.0854L171.755 19.9414C171.286 19.8294 170.958 19.696 170.771 19.5414C170.558 19.3654 170.451 19.112 170.451 18.7814C170.451 18.408 170.593 18.112 170.875 17.8934C171.163 17.6747 171.547 17.5654 172.027 17.5654C172.529 17.5654 172.918 17.6907 173.195 17.9414C173.435 18.16 173.555 18.44 173.555 18.7814ZM178.037 19.9014H175.005C175.01 20.2534 175.085 20.5334 175.229 20.7414C175.458 21.0774 175.789 21.2454 176.221 21.2454C176.754 21.2454 177.114 20.992 177.301 20.4854H177.957C177.872 20.9174 177.674 21.2534 177.365 21.4934C177.056 21.7334 176.666 21.8534 176.197 21.8534C175.573 21.8534 175.096 21.64 174.765 21.2134C174.472 20.84 174.325 20.3467 174.325 19.7334C174.325 19.024 174.517 18.472 174.901 18.0774C175.237 17.736 175.672 17.5654 176.205 17.5654C176.594 17.5654 176.936 17.6587 177.229 17.8454C177.528 18.032 177.741 18.288 177.869 18.6134C177.981 18.8907 178.037 19.312 178.037 19.8774V19.9014ZM177.333 19.3654C177.333 19.008 177.226 18.72 177.013 18.5014C176.805 18.2774 176.536 18.1654 176.205 18.1654C175.869 18.1654 175.594 18.2747 175.381 18.4934C175.173 18.7067 175.056 18.9974 175.029 19.3654H177.333ZM153.762 28.3014V30.7654H153.034V25.0374H155.666C156.274 25.0374 156.727 25.1867 157.026 25.4854C157.287 25.7467 157.418 26.1094 157.418 26.5734C157.418 26.8987 157.346 27.168 157.202 27.3814C157.063 27.5947 156.831 27.7814 156.506 27.9414C156.767 28.0427 156.959 28.1787 157.082 28.3494C157.205 28.5254 157.274 28.8854 157.29 29.4294C157.301 29.8294 157.325 30.0987 157.362 30.2374C157.405 30.3707 157.495 30.4854 157.634 30.5814V30.7654H156.754C156.637 30.52 156.578 30.2614 156.578 29.9894L156.586 29.0934C156.586 29.0347 156.562 28.944 156.514 28.8214C156.466 28.6987 156.421 28.6107 156.378 28.5574C156.234 28.3867 155.989 28.3014 155.642 28.3014H153.762ZM153.762 27.6534H155.53C156.282 27.6534 156.658 27.3254 156.658 26.6694C156.658 26.0134 156.282 25.6854 155.53 25.6854H153.762V27.6534ZM162.178 30.2134V30.7414C161.996 30.8054 161.855 30.8374 161.754 30.8374C161.327 30.8374 161.095 30.6427 161.058 30.2534C160.764 30.6534 160.298 30.8534 159.658 30.8534C159.215 30.8534 158.871 30.7307 158.626 30.4854C158.412 30.272 158.306 29.9974 158.306 29.6614C158.306 29.2774 158.442 28.9814 158.714 28.7734C158.868 28.656 159.191 28.5414 159.682 28.4294L161.026 28.1254L161.034 27.7814C161.034 27.3707 160.724 27.1654 160.106 27.1654C159.514 27.1654 159.196 27.4054 159.154 27.8854H158.49C158.506 27.5227 158.596 27.2454 158.762 27.0534C159.044 26.728 159.503 26.5654 160.138 26.5654C161.167 26.5654 161.682 26.9387 161.682 27.6854V29.9814C161.682 30.184 161.77 30.2854 161.946 30.2854C161.967 30.2854 162.023 30.2694 162.114 30.2374C162.146 30.2267 162.167 30.2187 162.178 30.2134ZM161.034 28.6614L159.978 28.9334C159.599 29.0294 159.338 29.128 159.194 29.2294C159.055 29.3307 158.986 29.472 158.986 29.6534C158.986 30.0747 159.258 30.2854 159.802 30.2854C160.186 30.2854 160.511 30.16 160.778 29.9094C160.948 29.7547 161.034 29.5787 161.034 29.3814V28.6614ZM164.505 26.6534V27.1814H163.665V29.9174C163.665 30.0134 163.697 30.096 163.761 30.1654C163.83 30.2294 163.918 30.2614 164.025 30.2614C164.126 30.2614 164.281 30.2374 164.489 30.1894L164.561 30.7654C164.23 30.824 163.98 30.8534 163.809 30.8534C163.281 30.8534 163.017 30.6374 163.017 30.2054V27.1814H162.457V26.6534H163.017V25.8134L163.665 25.5174V26.6534H164.505ZM168.744 28.9014H165.712C165.717 29.2534 165.792 29.5334 165.936 29.7414C166.165 30.0774 166.496 30.2454 166.928 30.2454C167.461 30.2454 167.821 29.992 168.008 29.4854H168.664C168.579 29.9174 168.381 30.2534 168.072 30.4934C167.763 30.7334 167.373 30.8534 166.904 30.8534C166.28 30.8534 165.803 30.64 165.472 30.2134C165.179 29.84 165.032 29.3467 165.032 28.7334C165.032 28.024 165.224 27.472 165.608 27.0774C165.944 26.736 166.379 26.5654 166.912 26.5654C167.301 26.5654 167.643 26.6587 167.936 26.8454C168.235 27.032 168.448 27.288 168.576 27.6134C168.688 27.8907 168.744 28.312 168.744 28.8774V28.9014ZM168.04 28.3654C168.04 28.008 167.933 27.72 167.72 27.5014C167.512 27.2774 167.243 27.1654 166.912 27.1654C166.576 27.1654 166.301 27.2747 166.088 27.4934C165.88 27.7067 165.763 27.9974 165.736 28.3654H168.04Z" fill="#42413D"/>
<path d="M151.504 42.6391C150.544 42.0871 150.064 41.3711 150.064 40.4911C150.064 39.7231 150.36 39.1511 150.952 38.7751C151.4 38.4871 151.976 38.3431 152.68 38.3431C153.44 38.3431 154.06 38.5431 154.54 38.9431C155.004 39.3271 155.236 39.8391 155.236 40.4791C155.236 41.3511 154.736 42.0751 153.736 42.6511C154.288 42.9231 154.688 43.1831 154.936 43.4311C155.312 43.8231 155.5 44.3071 155.5 44.8831C155.5 45.6911 155.168 46.3071 154.504 46.7311C153.984 47.0671 153.36 47.2351 152.632 47.2351C151.784 47.2351 151.092 47.0151 150.556 46.5751C150.028 46.1511 149.764 45.5831 149.764 44.8711C149.764 44.0391 150.344 43.2951 151.504 42.6391ZM152.692 41.9071C153.156 41.5711 153.388 41.0991 153.388 40.4911C153.388 39.9551 153.144 39.6871 152.656 39.6871C152.448 39.6871 152.284 39.7351 152.164 39.8311C151.996 39.9671 151.912 40.1911 151.912 40.5031C151.912 40.7671 151.976 41.0191 152.104 41.2591C152.224 41.4911 152.42 41.7071 152.692 41.9071ZM152.656 43.3111C151.944 43.6871 151.588 44.1711 151.588 44.7631C151.588 45.4191 151.944 45.7431 152.656 45.7351C153.376 45.7351 153.736 45.4151 153.736 44.7751C153.736 44.1991 153.376 43.7111 152.656 43.3111ZM162.454 42.9031C162.454 44.1591 162.214 45.1751 161.734 45.9511C161.206 46.8071 160.446 47.2351 159.454 47.2351C158.454 47.2351 157.694 46.8191 157.174 45.9871C156.686 45.2031 156.442 44.1751 156.442 42.9031C156.442 41.6151 156.686 40.5471 157.174 39.6991C157.694 38.7871 158.446 38.3311 159.43 38.3311C160.55 38.3311 161.378 38.9191 161.914 40.0951C162.274 40.8951 162.454 41.8311 162.454 42.9031ZM159.418 45.7111C159.866 45.7111 160.178 45.4151 160.354 44.8231C160.53 44.2471 160.618 43.6111 160.618 42.9151C160.618 42.2591 160.55 41.6231 160.414 41.0071C160.246 40.2391 159.918 39.8551 159.43 39.8551C158.974 39.8551 158.666 40.2151 158.506 40.9351C158.362 41.5431 158.29 42.2031 158.29 42.9151C158.29 43.6591 158.378 44.3151 158.554 44.8831C158.73 45.4351 159.018 45.7111 159.418 45.7111ZM165.169 38.7391C165.825 38.7391 166.337 38.9831 166.705 39.4711C167.057 39.9351 167.233 40.5351 167.233 41.2711C167.233 42.0071 167.053 42.5951 166.693 43.0351C166.341 43.4751 165.837 43.6951 165.181 43.6951C164.493 43.6951 163.969 43.4631 163.609 42.9991C163.273 42.5671 163.105 41.9951 163.105 41.2831C163.105 40.5631 163.273 39.9631 163.609 39.4831C163.969 38.9871 164.489 38.7391 165.169 38.7391ZM171.037 39.0031L166.285 47.0791H164.845L169.597 39.0031H171.037ZM165.169 39.6271C164.857 39.6271 164.633 39.8191 164.497 40.2031C164.401 40.5551 164.353 40.9151 164.353 41.2831C164.353 41.7071 164.413 42.0631 164.533 42.3511C164.669 42.6551 164.881 42.8071 165.169 42.8071C165.465 42.8071 165.681 42.6471 165.817 42.3271C165.921 42.0231 165.973 41.6751 165.973 41.2831C165.973 40.9711 165.929 40.6231 165.841 40.2391C165.697 39.8311 165.473 39.6271 165.169 39.6271ZM170.845 42.4351C171.493 42.4351 172.001 42.6791 172.369 43.1671C172.729 43.6231 172.909 44.2231 172.909 44.9671C172.909 45.7111 172.729 46.2991 172.369 46.7311C172.017 47.1711 171.509 47.3911 170.845 47.3911C170.165 47.3911 169.645 47.1591 169.285 46.6951C168.949 46.2711 168.781 45.6991 168.781 44.9791C168.781 44.2511 168.949 43.6511 169.285 43.1791C169.653 42.6831 170.173 42.4351 170.845 42.4351ZM170.845 43.3231C170.541 43.3231 170.321 43.5151 170.185 43.8991C170.089 44.2271 170.041 44.5871 170.041 44.9791C170.041 45.4031 170.097 45.7591 170.209 46.0471C170.337 46.3511 170.549 46.5031 170.845 46.5031C171.133 46.5031 171.345 46.3431 171.481 46.0231C171.601 45.7111 171.661 45.3631 171.661 44.9791C171.661 44.6511 171.613 44.3031 171.517 43.9351C171.373 43.5271 171.149 43.3231 170.845 43.3231Z" fill="#03A400"/>
<circle cx="161.199" cy="30.4982" r="27.5473" stroke="#FFF5D3" stroke-width="0.5"/>
<path d="M161.199 2.70093C176.551 2.70093 188.997 15.1462 188.997 30.4982C188.997 45.8502 176.551 58.2955 161.199 58.2955C145.847 58.2955 133.402 45.8502 133.402 30.4982C133.402 26.0604 134.442 21.8655 136.292 18.1439" stroke="#F7DF2A" stroke-width="4"/>
<path d="M83.0919 19.4168V21.8408H82.3639V16.1128H84.7319C85.3346 16.1128 85.7879 16.2782 86.0919 16.6088C86.3586 16.8968 86.4919 17.2915 86.4919 17.7928C86.4919 18.2995 86.3293 18.7022 86.0039 19.0008C85.7053 19.2782 85.3346 19.4168 84.8919 19.4168H83.0919ZM83.0919 18.7688H84.6199C84.9666 18.7688 85.2386 18.6808 85.4359 18.5048C85.6333 18.3288 85.7319 18.0808 85.7319 17.7608C85.7319 17.4462 85.6333 17.2008 85.4359 17.0248C85.2386 16.8488 84.9666 16.7608 84.6199 16.7608H83.0919V18.7688ZM89.0541 17.6408C89.6728 17.6408 90.1448 17.8568 90.4701 18.2888C90.7581 18.6622 90.9021 19.1688 90.9021 19.8088C90.9021 20.5235 90.7155 21.0675 90.3421 21.4408C90.0221 21.7662 89.5901 21.9288 89.0461 21.9288C88.4168 21.9288 87.9368 21.7182 87.6061 21.2968C87.3181 20.9288 87.1741 20.4328 87.1741 19.8088C87.1741 19.0835 87.3635 18.5262 87.7421 18.1368C88.0675 17.8062 88.5048 17.6408 89.0541 17.6408ZM89.0541 18.2408C88.6808 18.2408 88.3875 18.3822 88.1741 18.6648C87.9608 18.9422 87.8541 19.3235 87.8541 19.8088C87.8541 20.3155 87.9741 20.7022 88.2141 20.9688C88.4221 21.2035 88.6995 21.3208 89.0461 21.3208C89.4141 21.3208 89.6995 21.1875 89.9021 20.9208C90.1101 20.6542 90.2141 20.2835 90.2141 19.8088C90.2141 19.2862 90.0968 18.8862 89.8621 18.6088C89.6595 18.3635 89.3901 18.2408 89.0541 18.2408ZM94.7333 18.8568H94.0133C93.992 18.4462 93.7173 18.2408 93.1893 18.2408C92.9173 18.2408 92.7013 18.2942 92.5413 18.4008C92.3866 18.5022 92.3093 18.6408 92.3093 18.8168C92.3093 19.0835 92.5626 19.2755 93.0693 19.3928L93.7013 19.5368C94.112 19.6328 94.408 19.7688 94.5893 19.9448C94.7706 20.1208 94.8613 20.3608 94.8613 20.6648C94.8613 21.0542 94.7093 21.3635 94.4053 21.5928C94.1013 21.8168 93.6906 21.9288 93.1733 21.9288C92.608 21.9288 92.1786 21.7955 91.8853 21.5288C91.64 21.3102 91.5093 21.0195 91.4933 20.6568H92.2373C92.28 20.8435 92.3386 20.9795 92.4133 21.0648C92.5573 21.2355 92.8266 21.3208 93.2213 21.3208C93.5146 21.3208 93.7466 21.2675 93.9173 21.1608C94.0933 21.0488 94.1813 20.9022 94.1813 20.7208C94.1813 20.4488 93.9706 20.2622 93.5493 20.1608L92.9333 20.0168C92.464 19.9048 92.136 19.7715 91.9493 19.6168C91.736 19.4408 91.6293 19.1875 91.6293 18.8568C91.6293 18.4835 91.7706 18.1875 92.0533 17.9688C92.3413 17.7502 92.7253 17.6408 93.2053 17.6408C93.7066 17.6408 94.096 17.7662 94.3733 18.0168C94.6133 18.2355 94.7333 18.5155 94.7333 18.8568ZM96.359 17.7288V21.8408H95.711V17.7288H96.359ZM96.047 16.1208C96.159 16.1208 96.2523 16.1608 96.327 16.2408C96.407 16.3155 96.447 16.4062 96.447 16.5128C96.447 16.6248 96.407 16.7208 96.327 16.8008C96.2523 16.8755 96.159 16.9128 96.047 16.9128C95.9403 16.9128 95.847 16.8755 95.767 16.8008C95.6923 16.7208 95.655 16.6248 95.655 16.5128C95.655 16.4062 95.6923 16.3155 95.767 16.2408C95.847 16.1608 95.9403 16.1208 96.047 16.1208ZM99.0932 17.7288V18.2568H98.2532V20.9928C98.2532 21.0888 98.2852 21.1715 98.3492 21.2408C98.4185 21.3048 98.5065 21.3368 98.6132 21.3368C98.7145 21.3368 98.8692 21.3128 99.0772 21.2648L99.1492 21.8408C98.8185 21.8995 98.5679 21.9288 98.3972 21.9288C97.8692 21.9288 97.6052 21.7128 97.6052 21.2808V18.2568H97.0452V17.7288H97.6052V16.8888L98.2532 16.5928V17.7288H99.0932ZM100.476 17.7288V21.8408H99.8282V17.7288H100.476ZM100.164 16.1208C100.276 16.1208 100.37 16.1608 100.444 16.2408C100.524 16.3155 100.564 16.4062 100.564 16.5128C100.564 16.6248 100.524 16.7208 100.444 16.8008C100.37 16.8755 100.276 16.9128 100.164 16.9128C100.058 16.9128 99.9642 16.8755 99.8842 16.8008C99.8095 16.7208 99.7722 16.6248 99.7722 16.5128C99.7722 16.4062 99.8095 16.3155 99.8842 16.2408C99.9642 16.1608 100.058 16.1208 100.164 16.1208ZM103.29 21.8408H102.578L101.13 17.7288H101.874L102.962 21.0568L104.13 17.7288H104.866L103.29 21.8408ZM109.004 19.9768H105.972C105.977 20.3288 106.052 20.6088 106.196 20.8168C106.425 21.1528 106.756 21.3208 107.188 21.3208C107.721 21.3208 108.081 21.0675 108.268 20.5608H108.924C108.839 20.9928 108.641 21.3288 108.332 21.5688C108.023 21.8088 107.633 21.9288 107.164 21.9288C106.54 21.9288 106.063 21.7155 105.732 21.2888C105.439 20.9155 105.292 20.4222 105.292 19.8088C105.292 19.0995 105.484 18.5475 105.868 18.1528C106.204 17.8115 106.639 17.6408 107.172 17.6408C107.561 17.6408 107.903 17.7342 108.196 17.9208C108.495 18.1075 108.708 18.3635 108.836 18.6888C108.948 18.9662 109.004 19.3875 109.004 19.9528V19.9768ZM108.3 19.4408C108.3 19.0835 108.193 18.7955 107.98 18.5768C107.772 18.3528 107.503 18.2408 107.172 18.2408C106.836 18.2408 106.561 18.3502 106.348 18.5688C106.14 18.7822 106.023 19.0728 105.996 19.4408H108.3ZM77.9608 26.7608H77.2728C77.2568 26.0142 76.7795 25.6408 75.8408 25.6408C75.4568 25.6408 75.1475 25.7288 74.9128 25.9048C74.6782 26.0755 74.5608 26.3022 74.5608 26.5848C74.5608 26.7982 74.6302 26.9688 74.7688 27.0968C74.9128 27.2195 75.1582 27.3262 75.5048 27.4168L76.8648 27.7688C77.7288 27.9982 78.1608 28.4782 78.1608 29.2088C78.1608 29.7368 77.9502 30.1662 77.5288 30.4968C77.1555 30.7848 76.6195 30.9288 75.9208 30.9288C75.0355 30.9288 74.3928 30.6622 73.9928 30.1288C73.7795 29.8408 73.6675 29.4542 73.6568 28.9688H74.3448V28.9848C74.3448 29.4008 74.4862 29.7235 74.7688 29.9528C75.0568 30.1768 75.4568 30.2888 75.9688 30.2888C76.4382 30.2888 76.7875 30.2115 77.0168 30.0568C77.2888 29.8702 77.4248 29.6088 77.4248 29.2728C77.4248 28.8462 77.0755 28.5448 76.3768 28.3688L74.9528 28.0008C74.2062 27.8088 73.8328 27.3688 73.8328 26.6808C73.8328 26.1368 74.0382 25.7155 74.4488 25.4168C74.8062 25.1555 75.2782 25.0248 75.8648 25.0248C76.6968 25.0248 77.2915 25.2675 77.6488 25.7528C77.8568 26.0355 77.9608 26.3422 77.9608 26.6728C77.9608 26.6888 77.9608 26.7182 77.9608 26.7608ZM82.547 28.9768H79.515C79.5204 29.3288 79.595 29.6088 79.739 29.8168C79.9684 30.1528 80.299 30.3208 80.731 30.3208C81.2644 30.3208 81.6244 30.0675 81.811 29.5608H82.467C82.3817 29.9928 82.1844 30.3288 81.875 30.5688C81.5657 30.8088 81.1764 30.9288 80.707 30.9288C80.083 30.9288 79.6057 30.7155 79.275 30.2888C78.9817 29.9155 78.835 29.4222 78.835 28.8088C78.835 28.0995 79.027 27.5475 79.411 27.1528C79.747 26.8115 80.1817 26.6408 80.715 26.6408C81.1044 26.6408 81.4457 26.7342 81.739 26.9208C82.0377 27.1075 82.251 27.3635 82.379 27.6888C82.491 27.9662 82.547 28.3875 82.547 28.9528V28.9768ZM81.843 28.4408C81.843 28.0835 81.7364 27.7955 81.523 27.5768C81.315 27.3528 81.0457 27.2408 80.715 27.2408C80.379 27.2408 80.1044 27.3502 79.891 27.5688C79.683 27.7822 79.5657 28.0728 79.539 28.4408H81.843ZM84.0822 25.1128V30.8408H83.4262V25.1128H84.0822ZM85.8244 25.1128V30.8408H85.1684V25.1128H85.8244ZM90.3986 28.9768H87.3666C87.3719 29.3288 87.4466 29.6088 87.5906 29.8168C87.8199 30.1528 88.1506 30.3208 88.5826 30.3208C89.1159 30.3208 89.4759 30.0675 89.6626 29.5608H90.3186C90.2333 29.9928 90.0359 30.3288 89.7266 30.5688C89.4173 30.8088 89.0279 30.9288 88.5586 30.9288C87.9346 30.9288 87.4573 30.7155 87.1266 30.2888C86.8333 29.9155 86.6866 29.4222 86.6866 28.8088C86.6866 28.0995 86.8786 27.5475 87.2626 27.1528C87.5986 26.8115 88.0333 26.6408 88.5666 26.6408C88.9559 26.6408 89.2973 26.7342 89.5906 26.9208C89.8893 27.1075 90.1026 27.3635 90.2306 27.6888C90.3426 27.9662 90.3986 28.3875 90.3986 28.9528V28.9768ZM89.6946 28.4408C89.6946 28.0835 89.5879 27.7955 89.3746 27.5768C89.1666 27.3528 88.8973 27.2408 88.5666 27.2408C88.2306 27.2408 87.9559 27.3502 87.7426 27.5688C87.5346 27.7822 87.4173 28.0728 87.3906 28.4408H89.6946ZM91.2858 26.7288H91.8938V27.4808C92.1338 26.9155 92.5124 26.6328 93.0298 26.6328C93.0938 26.6328 93.1711 26.6408 93.2618 26.6568V27.3288C92.8351 27.3342 92.5418 27.3955 92.3818 27.5128C92.0884 27.7262 91.9418 28.1235 91.9418 28.7048V30.8408H91.2858V26.7288ZM96.2837 28.3768V30.8408H95.5557V25.1128H98.1877C98.7957 25.1128 99.2491 25.2622 99.5477 25.5608C99.8091 25.8222 99.9397 26.1848 99.9397 26.6488C99.9397 26.9742 99.8677 27.2435 99.7237 27.4568C99.5851 27.6702 99.3531 27.8568 99.0277 28.0168C99.2891 28.1182 99.4811 28.2542 99.6037 28.4248C99.7264 28.6008 99.7957 28.9608 99.8117 29.5048C99.8224 29.9048 99.8464 30.1742 99.8837 30.3128C99.9264 30.4462 100.017 30.5608 100.156 30.6568V30.8408H99.2757C99.1584 30.5955 99.0997 30.3368 99.0997 30.0648L99.1077 29.1688C99.1077 29.1102 99.0837 29.0195 99.0357 28.8968C98.9877 28.7742 98.9424 28.6862 98.8997 28.6328C98.7557 28.4622 98.5104 28.3768 98.1637 28.3768H96.2837ZM96.2837 27.7288H98.0517C98.8037 27.7288 99.1797 27.4008 99.1797 26.7448C99.1797 26.0888 98.8037 25.7608 98.0517 25.7608H96.2837V27.7288ZM104.7 30.2888V30.8168C104.518 30.8808 104.377 30.9128 104.276 30.9128C103.849 30.9128 103.617 30.7182 103.58 30.3288C103.286 30.7288 102.82 30.9288 102.18 30.9288C101.737 30.9288 101.393 30.8062 101.148 30.5608C100.934 30.3475 100.828 30.0728 100.828 29.7368C100.828 29.3528 100.964 29.0568 101.236 28.8488C101.39 28.7315 101.713 28.6168 102.204 28.5048L103.548 28.2008L103.556 27.8568C103.556 27.4462 103.246 27.2408 102.628 27.2408C102.036 27.2408 101.718 27.4808 101.676 27.9608H101.012C101.028 27.5982 101.118 27.3208 101.284 27.1288C101.566 26.8035 102.025 26.6408 102.66 26.6408C103.689 26.6408 104.204 27.0142 104.204 27.7608V30.0568C104.204 30.2595 104.292 30.3608 104.468 30.3608C104.489 30.3608 104.545 30.3448 104.636 30.3128C104.668 30.3022 104.689 30.2942 104.7 30.2888ZM103.556 28.7368L102.5 29.0088C102.121 29.1048 101.86 29.2035 101.716 29.3048C101.577 29.4062 101.508 29.5475 101.508 29.7288C101.508 30.1502 101.78 30.3608 102.324 30.3608C102.708 30.3608 103.033 30.2355 103.3 29.9848C103.47 29.8302 103.556 29.6542 103.556 29.4568V28.7368ZM107.027 26.7288V27.2568H106.187V29.9928C106.187 30.0888 106.219 30.1715 106.283 30.2408C106.352 30.3048 106.44 30.3368 106.547 30.3368C106.648 30.3368 106.803 30.3128 107.011 30.2648L107.083 30.8408C106.752 30.8995 106.501 30.9288 106.331 30.9288C105.803 30.9288 105.539 30.7128 105.539 30.2808V27.2568H104.979V26.7288H105.539V25.8888L106.187 25.5928V26.7288H107.027ZM108.41 26.7288V30.8408H107.762V26.7288H108.41ZM108.098 25.1208C108.21 25.1208 108.303 25.1608 108.378 25.2408C108.458 25.3155 108.498 25.4062 108.498 25.5128C108.498 25.6248 108.458 25.7208 108.378 25.8008C108.303 25.8755 108.21 25.9128 108.098 25.9128C107.991 25.9128 107.898 25.8755 107.818 25.8008C107.743 25.7208 107.706 25.6248 107.706 25.5128C107.706 25.4062 107.743 25.3155 107.818 25.2408C107.898 25.1608 107.991 25.1208 108.098 25.1208ZM109.536 26.7288H110.144V27.4248C110.475 26.9022 110.928 26.6408 111.504 26.6408C111.904 26.6408 112.221 26.7422 112.456 26.9448C112.691 27.1422 112.808 27.4088 112.808 27.7448V30.8408H112.16V28.0088C112.16 27.7635 112.083 27.5688 111.928 27.4248C111.779 27.2808 111.573 27.2088 111.312 27.2088C110.971 27.2088 110.699 27.3342 110.496 27.5848C110.293 27.8355 110.192 28.1688 110.192 28.5848V30.8408H109.536V26.7288ZM116.583 26.7288H117.191V30.1688C117.191 31.0595 117.047 31.6782 116.759 32.0248C116.471 32.3768 115.999 32.5528 115.343 32.5528C114.831 32.5528 114.431 32.4302 114.143 32.1848C113.887 31.9662 113.743 31.6755 113.711 31.3128H114.383C114.415 31.5262 114.495 31.6835 114.623 31.7848C114.81 31.9288 115.06 32.0008 115.375 32.0008C115.802 32.0008 116.106 31.8728 116.287 31.6168C116.442 31.3982 116.519 31.0248 116.519 30.4968V30.2328C116.178 30.6968 115.767 30.9288 115.287 30.9288C114.818 30.9288 114.42 30.7528 114.095 30.4008C113.748 30.0222 113.575 29.5048 113.575 28.8488C113.575 28.1448 113.756 27.5848 114.119 27.1688C114.439 26.8168 114.842 26.6408 115.327 26.6408C115.85 26.6408 116.268 26.8755 116.583 27.3448V26.7288ZM115.399 27.2408C115.047 27.2408 114.767 27.3822 114.559 27.6648C114.356 27.9422 114.255 28.3235 114.255 28.8088C114.255 29.3155 114.372 29.7022 114.607 29.9688C114.804 30.2035 115.071 30.3208 115.407 30.3208C115.759 30.3208 116.031 30.1875 116.223 29.9208C116.42 29.6542 116.519 29.2835 116.519 28.8088C116.519 28.2862 116.407 27.8862 116.183 27.6088C115.986 27.3635 115.724 27.2408 115.399 27.2408Z" fill="#42413D"/>
<path d="M85.7712 38.4866V46.2746L84.8352 47.0786H83.9232V40.6226L82.6152 41.7026L81.7752 40.6466L84.2712 38.4866H85.7712ZM93.0503 42.9026C93.0503 44.1586 92.8103 45.1746 92.3303 45.9506C91.8023 46.8066 91.0423 47.2346 90.0503 47.2346C89.0503 47.2346 88.2903 46.8186 87.7703 45.9866C87.2823 45.2026 87.0383 44.1746 87.0383 42.9026C87.0383 41.6146 87.2823 40.5466 87.7703 39.6986C88.2903 38.7866 89.0423 38.3306 90.0263 38.3306C91.1463 38.3306 91.9743 38.9186 92.5103 40.0946C92.8703 40.8946 93.0503 41.8306 93.0503 42.9026ZM90.0143 45.7106C90.4623 45.7106 90.7743 45.4146 90.9503 44.8226C91.1263 44.2466 91.2143 43.6106 91.2143 42.9146C91.2143 42.2586 91.1463 41.6226 91.0103 41.0066C90.8423 40.2386 90.5143 39.8546 90.0263 39.8546C89.5703 39.8546 89.2623 40.2146 89.1023 40.9346C88.9583 41.5426 88.8863 42.2026 88.8863 42.9146C88.8863 43.6586 88.9743 44.3146 89.1503 44.8826C89.3263 45.4346 89.6143 45.7106 90.0143 45.7106ZM99.9409 42.9026C99.9409 44.1586 99.7009 45.1746 99.2209 45.9506C98.6929 46.8066 97.9329 47.2346 96.9409 47.2346C95.9409 47.2346 95.1809 46.8186 94.6609 45.9866C94.1729 45.2026 93.9289 44.1746 93.9289 42.9026C93.9289 41.6146 94.1729 40.5466 94.6609 39.6986C95.1809 38.7866 95.9329 38.3306 96.9169 38.3306C98.0369 38.3306 98.8649 38.9186 99.4009 40.0946C99.7609 40.8946 99.9409 41.8306 99.9409 42.9026ZM96.9049 45.7106C97.3529 45.7106 97.6649 45.4146 97.8409 44.8226C98.0169 44.2466 98.1049 43.6106 98.1049 42.9146C98.1049 42.2586 98.0369 41.6226 97.9009 41.0066C97.7329 40.2386 97.4049 39.8546 96.9169 39.8546C96.4609 39.8546 96.1529 40.2146 95.9929 40.9346C95.8489 41.5426 95.7769 42.2026 95.7769 42.9146C95.7769 43.6586 95.8649 44.3146 96.0409 44.8826C96.2169 45.4346 96.5049 45.7106 96.9049 45.7106ZM102.656 38.7386C103.312 38.7386 103.824 38.9826 104.192 39.4706C104.544 39.9346 104.72 40.5346 104.72 41.2706C104.72 42.0066 104.54 42.5946 104.18 43.0346C103.828 43.4746 103.324 43.6946 102.668 43.6946C101.98 43.6946 101.456 43.4626 101.096 42.9986C100.76 42.5666 100.592 41.9946 100.592 41.2826C100.592 40.5626 100.76 39.9626 101.096 39.4826C101.456 38.9866 101.976 38.7386 102.656 38.7386ZM108.524 39.0026L103.772 47.0786H102.332L107.084 39.0026H108.524ZM102.656 39.6266C102.344 39.6266 102.12 39.8186 101.984 40.2026C101.888 40.5546 101.84 40.9146 101.84 41.2826C101.84 41.7066 101.9 42.0626 102.02 42.3506C102.156 42.6546 102.368 42.8066 102.656 42.8066C102.952 42.8066 103.168 42.6466 103.304 42.3266C103.408 42.0226 103.46 41.6746 103.46 41.2826C103.46 40.9706 103.416 40.6226 103.328 40.2386C103.184 39.8306 102.96 39.6266 102.656 39.6266ZM108.332 42.4346C108.98 42.4346 109.488 42.6786 109.856 43.1666C110.216 43.6226 110.396 44.2226 110.396 44.9666C110.396 45.7106 110.216 46.2986 109.856 46.7306C109.504 47.1706 108.996 47.3906 108.332 47.3906C107.652 47.3906 107.132 47.1586 106.772 46.6946C106.436 46.2706 106.268 45.6986 106.268 44.9786C106.268 44.2506 106.436 43.6506 106.772 43.1786C107.14 42.6826 107.66 42.4346 108.332 42.4346ZM108.332 43.3226C108.028 43.3226 107.808 43.5146 107.672 43.8986C107.576 44.2266 107.528 44.5866 107.528 44.9786C107.528 45.4026 107.584 45.7586 107.696 46.0466C107.824 46.3506 108.036 46.5026 108.332 46.5026C108.62 46.5026 108.832 46.3426 108.968 46.0226C109.088 45.7106 109.148 45.3626 109.148 44.9786C109.148 44.6506 109.1 44.3026 109.004 43.9346C108.86 43.5266 108.636 43.3226 108.332 43.3226Z" fill="#03A400"/>
<circle cx="95.4987" cy="30.9418" r="27.5473" stroke="#FFF5D3" stroke-width="0.5"/>
<circle cx="95.4987" cy="30.9418" r="27.7973" stroke="#F7DF2A" stroke-width="4"/>
</svg>
