<svg width="68" height="22" viewBox="0 0 68 22" fill="none" xmlns="http://www.w3.org/2000/svg">
<rect width="68" height="22" rx="11" fill="#F52E26"/>
<path d="M15.5057 9.20776C15.5057 11.5235 13.6098 13.4155 11.2529 13.4155C8.89592 13.4155 7 11.5235 7 9.20776C7 6.89199 8.89592 5 11.2529 5C13.6098 5 15.5057 6.89199 15.5057 9.20776Z" stroke="white" stroke-width="2"/>
<path d="M15.3047 11.6279L19.5656 15.8522L17.9546 17.4494L13.6937 13.225L15.3047 11.6279Z" fill="white"/>
<path d="M26.302 15.143C25.899 15.143 25.5177 15.0953 25.158 15C24.8027 14.9047 24.4907 14.7812 24.222 14.6295C23.9533 14.4778 23.741 14.3197 23.585 14.155L24.248 12.79C24.3477 12.92 24.4993 13.0587 24.703 13.206C24.9067 13.3533 25.1385 13.479 25.3985 13.583C25.6628 13.687 25.925 13.739 26.185 13.739C26.5273 13.739 26.8133 13.6458 27.043 13.4595C27.277 13.2688 27.394 13.0023 27.394 12.66C27.394 12.439 27.3398 12.2483 27.2315 12.088C27.1275 11.9233 26.9867 11.7782 26.809 11.6525C26.6357 11.5225 26.367 11.347 26.003 11.126C25.5047 10.8227 25.1147 10.5648 24.833 10.3525C24.5513 10.1358 24.3065 9.85417 24.0985 9.5075C23.8948 9.1565 23.793 8.734 23.793 8.24C23.793 7.759 23.8948 7.33433 24.0985 6.966C24.3065 6.59333 24.612 6.303 25.015 6.095C25.418 5.887 25.9033 5.783 26.471 5.783C27.394 5.783 28.1653 6.06467 28.785 6.628L28.057 7.954C27.9833 7.85 27.8728 7.73733 27.7255 7.616C27.5782 7.49033 27.4005 7.38417 27.1925 7.2975C26.9845 7.2065 26.7657 7.161 26.536 7.161C26.2023 7.161 25.9423 7.2585 25.756 7.4535C25.574 7.64417 25.483 7.88467 25.483 8.175C25.483 8.396 25.5372 8.59317 25.6455 8.7665C25.7582 8.9355 25.9033 9.08717 26.081 9.2215C26.263 9.35583 26.5057 9.514 26.809 9.696C27.3593 10.021 27.7797 10.294 28.07 10.515C28.3603 10.736 28.603 11.0177 28.798 11.36C28.9973 11.698 29.097 12.114 29.097 12.608C29.097 13.1323 28.9843 13.5852 28.759 13.9665C28.5337 14.3478 28.2108 14.6403 27.7905 14.844C27.3702 15.0433 26.874 15.143 26.302 15.143ZM33.1388 15.169C32.4411 15.169 31.8648 15.0217 31.4098 14.727C30.9548 14.428 30.6211 14.0293 30.4088 13.531C30.2008 13.0327 30.0968 12.4693 30.0968 11.841C30.0968 11.1997 30.2138 10.6168 30.4478 10.0925C30.6861 9.56383 31.0328 9.14567 31.4878 8.838C31.9428 8.526 32.4844 8.37 33.1128 8.37C34.0488 8.37 34.7183 8.64083 35.1213 9.1825C35.5243 9.71983 35.7258 10.5237 35.7258 11.594C35.7258 11.802 35.7171 12.036 35.6998 12.296H31.7998C31.8258 12.8203 31.9709 13.2255 32.2353 13.5115C32.5039 13.7932 32.8961 13.934 33.4118 13.934C33.6804 13.934 33.9686 13.8755 34.2763 13.7585C34.5839 13.6372 34.8114 13.492 34.9588 13.323L35.4788 14.558C34.8678 14.9653 34.0878 15.169 33.1388 15.169ZM34.0748 11.282C34.0748 10.645 33.9946 10.2073 33.8343 9.969C33.6783 9.72633 33.4508 9.605 33.1518 9.605C32.7314 9.605 32.4043 9.761 32.1703 10.073C31.9406 10.385 31.8128 10.788 31.7868 11.282H34.0748ZM38.554 15.182C38.1683 15.182 37.8433 15.0953 37.579 14.922C37.3147 14.7487 37.1153 14.5147 36.981 14.22C36.851 13.9253 36.786 13.596 36.786 13.232C36.786 12.9157 36.89 12.6015 37.098 12.2895C37.3103 11.9732 37.6852 11.7045 38.2225 11.4835C38.7598 11.2625 39.4857 11.152 40.4 11.152V10.853C40.4 10.4977 40.3133 10.2225 40.14 10.0275C39.971 9.8325 39.672 9.735 39.243 9.735C38.905 9.735 38.5735 9.7935 38.2485 9.9105C37.9278 10.0232 37.6917 10.164 37.54 10.333L37.02 9.085C37.3147 8.88567 37.6808 8.71667 38.1185 8.578C38.5562 8.43933 39.022 8.37 39.516 8.37C40.1357 8.37 40.6253 8.46533 40.985 8.656C41.349 8.84667 41.6047 9.11533 41.752 9.462C41.8993 9.80867 41.973 10.2377 41.973 10.749V15H40.582L40.465 14.077C40.2353 14.4497 39.9623 14.727 39.646 14.909C39.334 15.091 38.97 15.182 38.554 15.182ZM39.243 13.934C39.4423 13.934 39.6525 13.8538 39.8735 13.6935C40.0945 13.5332 40.27 13.3317 40.4 13.089V12.166C40.3393 12.1573 40.2353 12.153 40.088 12.153C39.6503 12.153 39.2582 12.2267 38.9115 12.374C38.5692 12.517 38.398 12.751 38.398 13.076C38.398 13.3837 38.4652 13.6047 38.5995 13.739C38.7382 13.869 38.9527 13.934 39.243 13.934ZM43.6509 8.526H45.1199L45.1979 9.67C45.3366 9.33633 45.5554 9.05033 45.8544 8.812C46.1534 8.56933 46.5759 8.448 47.1219 8.448C47.3386 8.448 47.5379 8.48267 47.7199 8.552L47.3559 10.255C47.2822 10.1813 47.1934 10.1293 47.0894 10.099C46.9897 10.0643 46.8662 10.047 46.7189 10.047C46.4156 10.047 46.1534 10.112 45.9324 10.242C45.7157 10.3677 45.5511 10.515 45.4384 10.684C45.3301 10.853 45.2759 10.9917 45.2759 11.1V15H43.6509V8.526ZM51.1008 15.156C50.4378 15.156 49.8853 15.0065 49.4433 14.7075C49.0013 14.4042 48.6742 13.999 48.4618 13.492C48.2538 12.985 48.1498 12.4173 48.1498 11.789C48.1498 11.1737 48.2668 10.606 48.5008 10.086C48.7348 9.566 49.0815 9.15 49.5408 8.838C50.0002 8.526 50.5505 8.37 51.1918 8.37C51.5905 8.37 51.9372 8.41333 52.2318 8.5C52.5308 8.58233 52.8168 8.734 53.0898 8.955L52.5568 10.333C52.4312 10.1467 52.2448 9.99933 51.9978 9.891C51.7552 9.77833 51.5168 9.722 51.2828 9.722C50.3382 9.722 49.8658 10.4067 49.8658 11.776C49.8658 12.491 49.9807 13.0132 50.2103 13.3425C50.4443 13.6675 50.8018 13.83 51.2828 13.83C51.5732 13.83 51.8375 13.7758 52.0758 13.6675C52.3185 13.5592 52.5092 13.427 52.6478 13.271L53.1418 14.428C53.0465 14.532 52.9013 14.6403 52.7063 14.753C52.5157 14.8613 52.2817 14.9545 52.0043 15.0325C51.727 15.1148 51.4258 15.156 51.1008 15.156ZM57.9411 8.37C58.5781 8.37 59.0591 8.57583 59.3841 8.9875C59.7134 9.39483 59.8781 9.97333 59.8781 10.723V15H58.2141V10.892C58.2141 10.528 58.1274 10.2355 57.9541 10.0145C57.7807 9.7935 57.5424 9.683 57.2391 9.683C57.0354 9.683 56.8426 9.735 56.6606 9.839C56.4829 9.943 56.3399 10.0882 56.2316 10.2745C56.1232 10.4565 56.0691 10.6623 56.0691 10.892V15H54.4701V5.094H56.0041V8.37L55.9716 9.345C56.4179 8.695 57.0744 8.37 57.9411 8.37Z" fill="white"/>
</svg>
