<svg width="350" height="40" viewBox="0 0 350 40" fill="none" xmlns="http://www.w3.org/2000/svg">
<g filter="url(#filter0_i_60_39646)">
<rect width="350" height="40" rx="10" fill="#04C700"/>
</g>
<path d="M156.21 17.485H153.54C153.5 16.605 152.925 16.165 151.815 16.165C150.845 16.165 150.36 16.48 150.36 17.11C150.36 17.4 150.49 17.61 150.75 17.74C150.97 17.85 151.675 18.055 152.865 18.355C153.995 18.645 154.815 18.95 155.325 19.27C156.205 19.81 156.645 20.62 156.645 21.7C156.645 22.88 156.18 23.79 155.25 24.43C154.44 24.99 153.375 25.27 152.055 25.27C150.455 25.27 149.235 24.885 148.395 24.115C147.655 23.445 147.275 22.535 147.255 21.385H150.075C150.135 22.525 150.83 23.095 152.16 23.095C153.25 23.095 153.795 22.73 153.795 22C153.795 21.66 153.65 21.41 153.36 21.25C153.08 21.08 152.375 20.835 151.245 20.515C149.875 20.125 148.955 19.73 148.485 19.33C147.935 18.86 147.66 18.18 147.66 17.29C147.66 16.23 148.1 15.395 148.98 14.785C149.75 14.255 150.735 13.99 151.935 13.99C153.365 13.99 154.455 14.335 155.205 15.025C155.855 15.625 156.19 16.445 156.21 17.485ZM160.902 14.26V25H158.097V14.26H160.902ZM172.743 19.165V25H170.943C170.843 24.54 170.793 24.21 170.793 24.01C170.793 23.99 170.793 23.965 170.793 23.935C170.793 23.895 170.793 23.86 170.793 23.83C170.033 24.79 168.958 25.27 167.568 25.27C165.918 25.27 164.613 24.685 163.653 23.515C162.823 22.495 162.408 21.21 162.408 19.66C162.408 17.86 162.978 16.43 164.118 15.37C165.108 14.45 166.353 13.99 167.853 13.99C169.213 13.99 170.343 14.4 171.243 15.22C172.023 15.93 172.468 16.825 172.578 17.905H169.863C169.623 16.835 168.938 16.3 167.808 16.3C166.988 16.3 166.358 16.595 165.918 17.185C165.478 17.765 165.258 18.6 165.258 19.69C165.258 21.87 166.148 22.96 167.928 22.96C169.238 22.96 169.988 22.36 170.178 21.16H168.228V19.165H172.743ZM183.877 14.26V25H181.147L178.252 20.125L177.637 19.03C177.527 18.85 177.377 18.545 177.187 18.115C177.257 18.905 177.292 19.815 177.292 20.845V25H174.562V14.26H177.397L180.067 18.805C180.587 19.705 180.987 20.455 181.267 21.055C181.187 20.005 181.147 19.08 181.147 18.28V14.26H183.877ZM191.386 14.26V25H188.581V14.26H191.386ZM202.671 14.26V25H199.941L197.046 20.125L196.431 19.03C196.321 18.85 196.171 18.545 195.981 18.115C196.051 18.905 196.086 19.815 196.086 20.845V25H193.356V14.26H196.191L198.861 18.805C199.381 19.705 199.781 20.455 200.061 21.055C199.981 20.005 199.941 19.08 199.941 18.28V14.26H202.671Z" fill="white"/>
<defs>
<filter id="filter0_i_60_39646" x="0" y="0" width="350" height="40" filterUnits="userSpaceOnUse" color-interpolation-filters="sRGB">
<feFlood flood-opacity="0" result="BackgroundImageFix"/>
<feBlend mode="normal" in="SourceGraphic" in2="BackgroundImageFix" result="shape"/>
<feColorMatrix in="SourceAlpha" type="matrix" values="0 0 0 0 0 0 0 0 0 0 0 0 0 0 0 0 0 0 127 0" result="hardAlpha"/>
<feOffset/>
<feGaussianBlur stdDeviation="5"/>
<feComposite in2="hardAlpha" operator="arithmetic" k2="-1" k3="1"/>
<feColorMatrix type="matrix" values="0 0 0 0 1 0 0 0 0 1 0 0 0 0 1 0 0 0 1 0"/>
<feBlend mode="normal" in2="shape" result="effect1_innerShadow_60_39646"/>
</filter>
</defs>
</svg>
