<svg width="24" height="31" viewBox="0 0 24 31" fill="none" xmlns="http://www.w3.org/2000/svg">
<path d="M3.01045 23.0001C2.36254 21.6362 2 20.1105 2 18.5001C2 13.245 5.86052 8.89162 10.9002 8.12121M6.33431 27.0001C8.06563 28.2581 10.1962 29.0001 12.5 29.0001C18.299 29.0001 23 24.2991 23 18.5001C23 13.2104 19.0884 8.83429 14 8.10645" stroke="#42413D"/>
<path d="M10.25 22.5H14.75M10.25 22.5L7.775 27.1M10.25 22.5L9.59251 21.3311M14.75 22.5L17 18.5M14.75 22.5L17.225 27M17 18.5L14.75 14.5M17 18.5H22.5M14.75 14.5L17.4202 10M14.75 14.5C14.75 14.5 14.1586 14.5 13.3491 14.5M2.5 18.5C3.55081 18.5 4.37576 18.5 5.19585 18.5M7.5 9.5C8.01496 10.4363 8.42144 11.1753 8.82346 11.9063" stroke="#42413D" stroke-linecap="round"/>
<path d="M10.9697 8.26262C11.369 7.53678 12.2811 7.27208 13.0069 7.67139L14.7593 8.63541C15.4851 9.03472 15.7498 9.94684 15.3505 10.6727L6.26474 27.1881C5.59923 28.3978 4.07903 28.839 2.8693 28.1735C1.65957 27.508 1.2184 25.9878 1.88392 24.7781L10.9697 8.26262Z" stroke="#42413D"/>
<path d="M14.1245 7.71517L17.5732 1.44629" stroke="#42413D" stroke-width="2" stroke-linecap="round"/>
<path d="M6.07753 22.3431L13.5498 8.7605" stroke="#42413D" stroke-linecap="round"/>
</svg>
