<svg width="17" height="15" viewBox="0 0 17 15" fill="none" xmlns="http://www.w3.org/2000/svg">
<path d="M0.36377 2.13709C0.36377 0.956806 1.30847 0 2.47382 0H11.6174C12.7827 0 13.7274 0.956806 13.7274 2.13709V7.12362C13.7274 8.3039 12.7827 9.2607 11.6174 9.2607H7.87255C7.68122 9.2607 7.49816 9.33964 7.36555 9.47932L3.78234 13.2536C3.56287 13.4848 3.17717 13.3274 3.17717 13.0067V9.97307C3.17717 9.57964 2.86227 9.2607 2.47382 9.2607C1.30847 9.2607 0.36377 8.3039 0.36377 7.12362V2.13709Z" fill="#FF7A00"/>
<path d="M14.0947 2.54541C15.2301 2.54541 15.6366 3.25029 15.6366 4.13135V9.41773C15.6366 10.2988 14.78 11.0036 14.0947 11.0036H12.0387V13.6468C12.0387 13.958 12.0179 14.1165 11.8005 13.9001L9.12615 11.0036H6.72754" stroke="#FF7A00"/>
<rect x="2.27295" y="3.25879" width="2.23722" height="2.23722" rx="1.11861" fill="white"/>
<rect x="5.85205" y="3.25879" width="2.23722" height="2.23722" rx="1.11861" fill="white"/>
<rect x="9.58105" y="3.3335" width="2.23722" height="2.23722" rx="1.11861" fill="white"/>
</svg>
