<svg width="156" height="45" viewBox="0 0 156 45" fill="none" xmlns="http://www.w3.org/2000/svg">
<g filter="url(#filter0_d_60_40436)">
<rect x="3" y="3" width="150" height="39" rx="10" fill="#F52E26"/>
<rect x="3.5" y="3.5" width="149" height="38" rx="9.5" stroke="#00D1FF"/>
</g>
<path d="M51.304 19H47.992C47.88 17.256 46.68 16.384 44.392 16.384C43.48 16.384 42.752 16.568 42.208 16.936C41.68 17.304 41.416 17.8 41.416 18.424C41.416 19.032 41.64 19.488 42.088 19.792C42.536 20.096 43.4 20.368 44.68 20.608L47.368 21.112C48.952 21.416 50.104 21.936 50.824 22.672C51.544 23.408 51.904 24.448 51.904 25.792C51.904 27.632 51.2 29.032 49.792 29.992C48.576 30.84 46.936 31.264 44.872 31.264C42.52 31.264 40.728 30.72 39.496 29.632C38.424 28.688 37.84 27.376 37.744 25.696H41.176C41.304 27.52 42.592 28.432 45.04 28.432C46.128 28.432 46.976 28.24 47.584 27.856C48.208 27.456 48.52 26.912 48.52 26.224C48.52 25.552 48.272 25.032 47.776 24.664C47.296 24.296 46.464 24 45.28 23.776L42.88 23.32C41.136 23 39.888 22.496 39.136 21.808C38.4 21.104 38.032 20.096 38.032 18.784C38.032 17.008 38.68 15.664 39.976 14.752C41.096 13.952 42.616 13.552 44.536 13.552C46.856 13.552 48.6 14.08 49.768 15.136C50.776 16.064 51.288 17.352 51.304 19ZM65.4706 31H62.1826V29.2C61.2866 30.576 60.0146 31.264 58.3666 31.264C56.9106 31.264 55.8066 30.832 55.0546 29.968C54.4146 29.216 54.0946 28.184 54.0946 26.872V18.28H57.4066V26.176C57.4066 27.696 58.1106 28.456 59.5186 28.456C60.3186 28.456 60.9586 28.232 61.4386 27.784C61.9346 27.336 62.1826 26.728 62.1826 25.96V18.28H65.4706V31ZM68.6052 13.816H71.9172V19.72C72.7012 18.584 73.8612 18.016 75.3972 18.016C77.1092 18.016 78.4612 18.704 79.4532 20.08C80.3332 21.296 80.7732 22.816 80.7732 24.64C80.7732 26.72 80.2052 28.384 79.0692 29.632C78.0772 30.72 76.8532 31.264 75.3972 31.264C73.8452 31.264 72.6852 30.704 71.9172 29.584V31H68.6052V13.816ZM74.6772 20.776C73.8292 20.776 73.1492 21.128 72.6372 21.832C72.1412 22.52 71.8932 23.464 71.8932 24.664C71.8932 25.848 72.1412 26.784 72.6372 27.472C73.1332 28.16 73.8132 28.504 74.6772 28.504C75.5252 28.504 76.1972 28.16 76.6932 27.472C77.2052 26.768 77.4612 25.832 77.4612 24.664C77.4612 23.48 77.2052 22.536 76.6932 21.832C76.1972 21.128 75.5252 20.776 74.6772 20.776ZM83.0896 18.28H86.3776V19.816C87.3536 18.616 88.5136 18.016 89.8576 18.016C91.5056 18.016 92.6576 18.64 93.3136 19.888C94.2736 18.64 95.5136 18.016 97.0336 18.016C98.3136 18.016 99.3056 18.368 100.01 19.072C100.73 19.76 101.09 20.72 101.09 21.952V31H97.8016V22.48C97.8016 21.376 97.2016 20.824 96.0016 20.824C95.2976 20.824 94.7456 21.048 94.3456 21.496C93.9456 21.928 93.7456 22.536 93.7456 23.32V31H90.4336V22.48C90.4336 21.376 89.8416 20.824 88.6576 20.824C87.9536 20.824 87.4016 21.048 87.0016 21.496C86.6016 21.928 86.4016 22.536 86.4016 23.32V31H83.0896V18.28ZM107.496 18.28V31H104.184V18.28H107.496ZM105.816 13.912C106.248 13.912 106.608 14.064 106.896 14.368C107.2 14.672 107.352 15.04 107.352 15.472C107.352 15.904 107.2 16.272 106.896 16.576C106.608 16.864 106.248 17.008 105.816 17.008C105.384 17.008 105.016 16.864 104.712 16.576C104.408 16.272 104.256 15.904 104.256 15.472C104.256 15.04 104.408 14.672 104.712 14.368C105.016 14.064 105.384 13.912 105.816 13.912ZM116.723 18.28V20.464H114.491V27.544C114.491 28.008 114.571 28.328 114.731 28.504C114.907 28.68 115.219 28.768 115.667 28.768C116.035 28.768 116.507 28.624 117.083 28.336C117.131 28.304 117.171 28.28 117.203 28.264L117.587 30.52C116.579 31.016 115.523 31.264 114.419 31.264C112.259 31.264 111.179 30.272 111.179 28.288V20.464H109.547V18.28H111.179V16.168L114.491 14.272V18.28H116.723Z" fill="white"/>
<defs>
<filter id="filter0_d_60_40436" x="0" y="0" width="156" height="45" filterUnits="userSpaceOnUse" color-interpolation-filters="sRGB">
<feFlood flood-opacity="0" result="BackgroundImageFix"/>
<feColorMatrix in="SourceAlpha" type="matrix" values="0 0 0 0 0 0 0 0 0 0 0 0 0 0 0 0 0 0 127 0" result="hardAlpha"/>
<feOffset/>
<feGaussianBlur stdDeviation="1.5"/>
<feComposite in2="hardAlpha" operator="out"/>
<feColorMatrix type="matrix" values="0 0 0 0 0 0 0 0 0 0.819608 0 0 0 0 1 0 0 0 1 0"/>
<feBlend mode="normal" in2="BackgroundImageFix" result="effect1_dropShadow_60_40436"/>
<feBlend mode="normal" in="SourceGraphic" in2="effect1_dropShadow_60_40436" result="shape"/>
</filter>
</defs>
</svg>
