<svg width="12" height="7" viewBox="0 0 12 7" fill="none" xmlns="http://www.w3.org/2000/svg">
<path d="M0.25 0.25H11.75V6.75H0.25V5.23228C1.09807 5.11097 1.75 4.38162 1.75 3.5C1.75 2.61838 1.09807 1.88903 0.25 1.76772V0.25Z" stroke="#F7DF2A" stroke-width="0.5"/>
<path d="M7.5 1H8.5L5.5 6H4.5L7.5 1Z" fill="#F7DF2A"/>
<path d="M8.7725 2.71484C9.15917 2.71484 9.46917 2.89984 9.7025 3.26984C9.89917 3.57651 9.9975 3.94151 9.9975 4.36484C9.9975 4.87484 9.8725 5.28318 9.6225 5.58984C9.4025 5.86318 9.11917 5.99984 8.7725 5.99984C8.37583 5.99984 8.06583 5.82318 7.8425 5.46984C7.65583 5.17651 7.5625 4.80818 7.5625 4.36484C7.5625 3.87151 7.68583 3.46651 7.9325 3.14984C8.15583 2.85984 8.43583 2.71484 8.7725 2.71484ZM8.7825 3.27484C8.4225 3.27484 8.2425 3.62818 8.2425 4.33484C8.2425 4.69151 8.29417 4.97151 8.3975 5.17484C8.49083 5.35818 8.61417 5.44984 8.7675 5.44984C8.9375 5.44984 9.07083 5.35151 9.1675 5.15484C9.2675 4.95484 9.3175 4.68151 9.3175 4.33484C9.3175 3.62818 9.13917 3.27484 8.7825 3.27484Z" fill="#F7DF2A"/>
<path d="M4.21 1C4.59667 1 4.90667 1.185 5.14 1.555C5.33667 1.86167 5.435 2.22667 5.435 2.65C5.435 3.16 5.31 3.56833 5.06 3.875C4.84 4.14833 4.55667 4.285 4.21 4.285C3.81333 4.285 3.50333 4.10833 3.28 3.755C3.09333 3.46167 3 3.09333 3 2.65C3 2.15667 3.12333 1.75167 3.37 1.435C3.59333 1.145 3.87333 1 4.21 1ZM4.22 1.56C3.86 1.56 3.68 1.91333 3.68 2.62C3.68 2.97667 3.73167 3.25667 3.835 3.46C3.92833 3.64333 4.05167 3.735 4.205 3.735C4.375 3.735 4.50833 3.63667 4.605 3.44C4.705 3.24 4.755 2.96667 4.755 2.62C4.755 1.91333 4.57667 1.56 4.22 1.56Z" fill="#F7DF2A"/>
</svg>
