<svg width="18" height="23" viewBox="0 0 18 23" fill="none" xmlns="http://www.w3.org/2000/svg">
<path d="M7.71147 22H6.00071C5.30099 19.7093 5.47183 15.1941 6.1718 12.2054M7.71147 22V18.5398M7.71147 22H9.91102M9.91102 22V19.5177M9.91102 22H12.1921M12.1921 22V19.5177M12.1921 22H13.9028C14.1871 19.9606 14.0663 15.6742 11.9665 12.1338M6.02847 10.9581C5.85626 8.98687 6.14576 6.30091 6.89677 6.30091C8.11861 6.30091 10.3184 8.63279 11.4588 8.63279C12.5992 8.63279 15.0434 6.30091 16.1024 6.30091C17.1615 6.30091 17.4874 14.3 15.9395 14.3C14.5783 14.3 13.2171 12.5547 11.9665 12.1338M6.02847 10.9581C4.09211 13.5541 3.56686 19.2034 3.99951 22H1.11275C0.395855 15.6814 3.25799 11.0928 4.77867 9.5884L1.11275 2.14143C1.68295 0.937862 5.34899 0.185686 7.46708 2.51754C10.0088 0.230798 12.8709 1.16355 13.9843 1.91577L10.7215 8.41879M6.02847 10.9581C6.06038 11.3234 6.10816 11.7648 6.1718 12.2054M11.9665 12.1338C11.7951 12.0761 11.6258 12.0433 11.4588 12.0433C10.1554 12.0433 8.11889 14.3 6.89677 14.3C6.56507 14.3 6.32342 13.2551 6.1718 12.2054" stroke="#42413D" stroke-linecap="round"/>
</svg>
