<svg width="33" height="33" viewBox="0 0 33 33" fill="none" xmlns="http://www.w3.org/2000/svg">
<path d="M33.0043 16.5C33.0043 25.6127 25.6169 33 16.5043 33C7.3916 33 0.00427246 25.6127 0.00427246 16.5C0.00427246 7.38733 7.3916 0 16.5043 0C25.6169 0 33.0043 7.38733 33.0043 16.5Z" fill="#AA0703"/>
<path d="M32.9981 16.4992C32.9981 25.6113 25.6112 32.9984 16.4989 32.9984C7.38679 32.9984 -0.00012207 25.6113 -0.00012207 16.4992C-0.00012207 7.38691 7.38679 0 16.4989 0C25.6112 0 32.9981 7.38691 32.9981 16.4992Z" fill="url(#paint0_radial_1_1211)"/>
<path d="M-0.000120628 16.5001C-0.000119831 7.38744 7.38721 0.000119831 16.4999 0.000120628C25.6126 0.000121424 32.9999 7.38745 32.9999 16.5001C32.9999 25.6128 25.6126 33.0001 16.4999 33.0001C7.3872 33.0001 -0.000121424 25.6128 -0.000120628 16.5001Z" fill="url(#paint1_radial_1_1211)" fill-opacity="0.5"/>
<path d="M-0.000120628 16.5C-0.000119831 7.38732 7.38721 -2.23913e-06 16.4999 -1.44248e-06C25.6126 -6.4582e-07 32.9999 7.38733 32.9999 16.5C32.9999 25.6127 25.6126 33 16.4999 33C7.3872 33 -0.000121424 25.6127 -0.000120628 16.5Z" fill="url(#paint2_radial_1_1211)" fill-opacity="0.5"/>
<path d="M6.09067 13.5712C6.24302 11.1697 8.19473 9.31122 10.5979 9.18747C12.5011 9.08946 14.7245 9 16.4999 9C18.2753 9 20.4987 9.08946 22.4019 9.18747C24.805 9.31122 26.7567 11.1697 26.9091 13.5712C26.9625 14.4128 26.9999 15.2648 26.9999 16C26.9999 16.7351 26.9625 17.587 26.9091 18.4286C26.7568 20.8302 24.8049 22.6887 22.4017 22.8125C20.4978 22.9105 18.2739 23 16.4999 23C14.7259 23 12.502 22.9105 10.5981 22.8125C8.19485 22.6887 6.243 20.8302 6.09066 18.4286C6.03727 17.587 5.99988 16.7351 5.99988 16C5.99988 15.2648 6.03728 14.4128 6.09067 13.5712Z" fill="white"/>
<path d="M13.4999 13L19.4999 16L13.4999 19V13Z" fill="#B11606"/>
<circle cx="16.4999" cy="16.5" r="14.75" stroke="white" stroke-width="1.5"/>
<defs>
<radialGradient id="paint0_radial_1_1211" cx="0" cy="0" r="1" gradientUnits="userSpaceOnUse" gradientTransform="translate(16.4989 16.4992) rotate(90) scale(16.4992)">
<stop offset="0.7914" stop-color="#DC3630" stop-opacity="0"/>
<stop offset="1" stop-color="#DC3630"/>
</radialGradient>
<radialGradient id="paint1_radial_1_1211" cx="0" cy="0" r="1" gradientUnits="userSpaceOnUse" gradientTransform="translate(24.4999 23.5001) rotate(-136.637) scale(24.7588)">
<stop offset="0.3143" stop-color="#E7985B"/>
<stop offset="1" stop-color="#CE491C" stop-opacity="0"/>
</radialGradient>
<radialGradient id="paint2_radial_1_1211" cx="0" cy="0" r="1" gradientUnits="userSpaceOnUse" gradientTransform="translate(19.7999 19.8) rotate(-135) scale(21.0011)">
<stop offset="0.4446" stop-color="#BB2F0B" stop-opacity="0"/>
<stop offset="1" stop-color="#BB2F0B"/>
</radialGradient>
</defs>
</svg>
